%TF.GenerationSoftware,KiCad,Pcbnew,9.0.5*%
%TF.CreationDate,2026-05-03T01:16:14+05:30*%
%TF.ProjectId,rid,7269642e-6b69-4636-9164-5f7063625858,rev?*%
%TF.SameCoordinates,Original*%
%TF.FileFunction,Drillmap*%
%TF.FilePolarity,Positive*%
%FSLAX45Y45*%
G04 Gerber Fmt 4.5, Leading zero omitted, Abs format (unit mm)*
G04 Created by KiCad (PCBNEW 9.0.5) date 2026-05-03 01:16:14*
%MOMM*%
%LPD*%
G01*
G04 APERTURE LIST*
%ADD10C,0.050000*%
%ADD11C,0.200000*%
%ADD12C,0.100000*%
G04 APERTURE END LIST*
D10*
X13300000Y-7750000D02*
G75*
G02*
X13100000Y-7950000I-200000J0D01*
G01*
X13100000Y-3850000D02*
G75*
G02*
X13300000Y-4050000I0J-200000D01*
G01*
X9200000Y-7750000D02*
X9200000Y-4050000D01*
X9400000Y-7950000D02*
G75*
G02*
X9200000Y-7750000I0J200000D01*
G01*
X13300000Y-4050000D02*
X13300000Y-7750000D01*
X11450000Y-4000000D02*
G75*
G02*
X11150000Y-4000000I-150000J0D01*
G01*
X9400000Y-3850000D02*
X13100000Y-3850000D01*
X13100000Y-7950000D02*
X9400000Y-7950000D01*
X11150000Y-4000000D02*
X11450000Y-4000000D01*
X9200000Y-4050000D02*
G75*
G02*
X9400000Y-3850000I200000J0D01*
G01*
D11*
D12*
X9485000Y-4185000D02*
X9515000Y-4215000D01*
X9515000Y-4185000D02*
X9485000Y-4215000D01*
X9485000Y-7035000D02*
X9515000Y-7065000D01*
X9515000Y-7035000D02*
X9485000Y-7065000D01*
X10985000Y-4135000D02*
X11015000Y-4165000D01*
X11015000Y-4135000D02*
X10985000Y-4165000D01*
X10275000Y-5650000D02*
G75*
G02*
X10225000Y-5650000I-25000J0D01*
G01*
X10225000Y-5650000D02*
G75*
G02*
X10275000Y-5650000I25000J0D01*
G01*
X10275000Y-6027000D02*
G75*
G02*
X10225000Y-6027000I-25000J0D01*
G01*
X10225000Y-6027000D02*
G75*
G02*
X10275000Y-6027000I25000J0D01*
G01*
X10755000Y-6670000D02*
G75*
G02*
X10705000Y-6670000I-25000J0D01*
G01*
X10705000Y-6670000D02*
G75*
G02*
X10755000Y-6670000I25000J0D01*
G01*
X12100000Y-6175000D02*
G75*
G02*
X12050000Y-6175000I-25000J0D01*
G01*
X12050000Y-6175000D02*
G75*
G02*
X12100000Y-6175000I25000J0D01*
G01*
X12252000Y-5773000D02*
G75*
G02*
X12202000Y-5773000I-25000J0D01*
G01*
X12202000Y-5773000D02*
G75*
G02*
X12252000Y-5773000I25000J0D01*
G01*
X11322500Y-7600000D02*
X11322500Y-7700000D01*
X11272500Y-7650000D02*
X11372500Y-7650000D01*
X11576500Y-7600000D02*
X11576500Y-7700000D01*
X11526500Y-7650000D02*
X11626500Y-7650000D01*
X12142000Y-4050000D02*
X12142000Y-4150000D01*
X12092000Y-4100000D02*
X12192000Y-4100000D01*
X12396000Y-4050000D02*
X12396000Y-4150000D01*
X12346000Y-4100000D02*
X12446000Y-4100000D01*
X12650000Y-4050000D02*
X12650000Y-4150000D01*
X12600000Y-4100000D02*
X12700000Y-4100000D01*
D11*
X9458277Y-8263984D02*
X9458277Y-8063984D01*
X9458277Y-8063984D02*
X9505896Y-8063984D01*
X9505896Y-8063984D02*
X9534467Y-8073508D01*
X9534467Y-8073508D02*
X9553515Y-8092555D01*
X9553515Y-8092555D02*
X9563039Y-8111603D01*
X9563039Y-8111603D02*
X9572563Y-8149698D01*
X9572563Y-8149698D02*
X9572563Y-8178269D01*
X9572563Y-8178269D02*
X9563039Y-8216365D01*
X9563039Y-8216365D02*
X9553515Y-8235412D01*
X9553515Y-8235412D02*
X9534467Y-8254460D01*
X9534467Y-8254460D02*
X9505896Y-8263984D01*
X9505896Y-8263984D02*
X9458277Y-8263984D01*
X9658277Y-8263984D02*
X9658277Y-8130650D01*
X9658277Y-8168746D02*
X9667801Y-8149698D01*
X9667801Y-8149698D02*
X9677324Y-8140174D01*
X9677324Y-8140174D02*
X9696372Y-8130650D01*
X9696372Y-8130650D02*
X9715420Y-8130650D01*
X9782086Y-8263984D02*
X9782086Y-8130650D01*
X9782086Y-8063984D02*
X9772563Y-8073508D01*
X9772563Y-8073508D02*
X9782086Y-8083031D01*
X9782086Y-8083031D02*
X9791610Y-8073508D01*
X9791610Y-8073508D02*
X9782086Y-8063984D01*
X9782086Y-8063984D02*
X9782086Y-8083031D01*
X9905896Y-8263984D02*
X9886848Y-8254460D01*
X9886848Y-8254460D02*
X9877324Y-8235412D01*
X9877324Y-8235412D02*
X9877324Y-8063984D01*
X10010658Y-8263984D02*
X9991610Y-8254460D01*
X9991610Y-8254460D02*
X9982086Y-8235412D01*
X9982086Y-8235412D02*
X9982086Y-8063984D01*
X10239229Y-8263984D02*
X10239229Y-8063984D01*
X10239229Y-8063984D02*
X10305896Y-8206841D01*
X10305896Y-8206841D02*
X10372563Y-8063984D01*
X10372563Y-8063984D02*
X10372563Y-8263984D01*
X10553515Y-8263984D02*
X10553515Y-8159222D01*
X10553515Y-8159222D02*
X10543991Y-8140174D01*
X10543991Y-8140174D02*
X10524944Y-8130650D01*
X10524944Y-8130650D02*
X10486848Y-8130650D01*
X10486848Y-8130650D02*
X10467801Y-8140174D01*
X10553515Y-8254460D02*
X10534467Y-8263984D01*
X10534467Y-8263984D02*
X10486848Y-8263984D01*
X10486848Y-8263984D02*
X10467801Y-8254460D01*
X10467801Y-8254460D02*
X10458277Y-8235412D01*
X10458277Y-8235412D02*
X10458277Y-8216365D01*
X10458277Y-8216365D02*
X10467801Y-8197317D01*
X10467801Y-8197317D02*
X10486848Y-8187793D01*
X10486848Y-8187793D02*
X10534467Y-8187793D01*
X10534467Y-8187793D02*
X10553515Y-8178269D01*
X10648753Y-8130650D02*
X10648753Y-8330650D01*
X10648753Y-8140174D02*
X10667801Y-8130650D01*
X10667801Y-8130650D02*
X10705896Y-8130650D01*
X10705896Y-8130650D02*
X10724944Y-8140174D01*
X10724944Y-8140174D02*
X10734467Y-8149698D01*
X10734467Y-8149698D02*
X10743991Y-8168746D01*
X10743991Y-8168746D02*
X10743991Y-8225888D01*
X10743991Y-8225888D02*
X10734467Y-8244936D01*
X10734467Y-8244936D02*
X10724944Y-8254460D01*
X10724944Y-8254460D02*
X10705896Y-8263984D01*
X10705896Y-8263984D02*
X10667801Y-8263984D01*
X10667801Y-8263984D02*
X10648753Y-8254460D01*
X10829705Y-8244936D02*
X10839229Y-8254460D01*
X10839229Y-8254460D02*
X10829705Y-8263984D01*
X10829705Y-8263984D02*
X10820182Y-8254460D01*
X10820182Y-8254460D02*
X10829705Y-8244936D01*
X10829705Y-8244936D02*
X10829705Y-8263984D01*
X10829705Y-8140174D02*
X10839229Y-8149698D01*
X10839229Y-8149698D02*
X10829705Y-8159222D01*
X10829705Y-8159222D02*
X10820182Y-8149698D01*
X10820182Y-8149698D02*
X10829705Y-8140174D01*
X10829705Y-8140174D02*
X10829705Y-8159222D01*
D12*
X9167500Y-8577500D02*
X9197500Y-8607500D01*
X9197500Y-8577500D02*
X9167500Y-8607500D01*
D11*
X9496372Y-8483984D02*
X9515420Y-8483984D01*
X9515420Y-8483984D02*
X9534467Y-8493508D01*
X9534467Y-8493508D02*
X9543991Y-8503031D01*
X9543991Y-8503031D02*
X9553515Y-8522079D01*
X9553515Y-8522079D02*
X9563039Y-8560174D01*
X9563039Y-8560174D02*
X9563039Y-8607793D01*
X9563039Y-8607793D02*
X9553515Y-8645889D01*
X9553515Y-8645889D02*
X9543991Y-8664936D01*
X9543991Y-8664936D02*
X9534467Y-8674460D01*
X9534467Y-8674460D02*
X9515420Y-8683984D01*
X9515420Y-8683984D02*
X9496372Y-8683984D01*
X9496372Y-8683984D02*
X9477324Y-8674460D01*
X9477324Y-8674460D02*
X9467801Y-8664936D01*
X9467801Y-8664936D02*
X9458277Y-8645889D01*
X9458277Y-8645889D02*
X9448753Y-8607793D01*
X9448753Y-8607793D02*
X9448753Y-8560174D01*
X9448753Y-8560174D02*
X9458277Y-8522079D01*
X9458277Y-8522079D02*
X9467801Y-8503031D01*
X9467801Y-8503031D02*
X9477324Y-8493508D01*
X9477324Y-8493508D02*
X9496372Y-8483984D01*
X9648753Y-8664936D02*
X9658277Y-8674460D01*
X9658277Y-8674460D02*
X9648753Y-8683984D01*
X9648753Y-8683984D02*
X9639229Y-8674460D01*
X9639229Y-8674460D02*
X9648753Y-8664936D01*
X9648753Y-8664936D02*
X9648753Y-8683984D01*
X9724944Y-8483984D02*
X9848753Y-8483984D01*
X9848753Y-8483984D02*
X9782086Y-8560174D01*
X9782086Y-8560174D02*
X9810658Y-8560174D01*
X9810658Y-8560174D02*
X9829705Y-8569698D01*
X9829705Y-8569698D02*
X9839229Y-8579222D01*
X9839229Y-8579222D02*
X9848753Y-8598270D01*
X9848753Y-8598270D02*
X9848753Y-8645889D01*
X9848753Y-8645889D02*
X9839229Y-8664936D01*
X9839229Y-8664936D02*
X9829705Y-8674460D01*
X9829705Y-8674460D02*
X9810658Y-8683984D01*
X9810658Y-8683984D02*
X9753515Y-8683984D01*
X9753515Y-8683984D02*
X9734467Y-8674460D01*
X9734467Y-8674460D02*
X9724944Y-8664936D01*
X9972563Y-8483984D02*
X9991610Y-8483984D01*
X9991610Y-8483984D02*
X10010658Y-8493508D01*
X10010658Y-8493508D02*
X10020182Y-8503031D01*
X10020182Y-8503031D02*
X10029705Y-8522079D01*
X10029705Y-8522079D02*
X10039229Y-8560174D01*
X10039229Y-8560174D02*
X10039229Y-8607793D01*
X10039229Y-8607793D02*
X10029705Y-8645889D01*
X10029705Y-8645889D02*
X10020182Y-8664936D01*
X10020182Y-8664936D02*
X10010658Y-8674460D01*
X10010658Y-8674460D02*
X9991610Y-8683984D01*
X9991610Y-8683984D02*
X9972563Y-8683984D01*
X9972563Y-8683984D02*
X9953515Y-8674460D01*
X9953515Y-8674460D02*
X9943991Y-8664936D01*
X9943991Y-8664936D02*
X9934467Y-8645889D01*
X9934467Y-8645889D02*
X9924944Y-8607793D01*
X9924944Y-8607793D02*
X9924944Y-8560174D01*
X9924944Y-8560174D02*
X9934467Y-8522079D01*
X9934467Y-8522079D02*
X9943991Y-8503031D01*
X9943991Y-8503031D02*
X9953515Y-8493508D01*
X9953515Y-8493508D02*
X9972563Y-8483984D01*
X10163039Y-8483984D02*
X10182086Y-8483984D01*
X10182086Y-8483984D02*
X10201134Y-8493508D01*
X10201134Y-8493508D02*
X10210658Y-8503031D01*
X10210658Y-8503031D02*
X10220182Y-8522079D01*
X10220182Y-8522079D02*
X10229705Y-8560174D01*
X10229705Y-8560174D02*
X10229705Y-8607793D01*
X10229705Y-8607793D02*
X10220182Y-8645889D01*
X10220182Y-8645889D02*
X10210658Y-8664936D01*
X10210658Y-8664936D02*
X10201134Y-8674460D01*
X10201134Y-8674460D02*
X10182086Y-8683984D01*
X10182086Y-8683984D02*
X10163039Y-8683984D01*
X10163039Y-8683984D02*
X10143991Y-8674460D01*
X10143991Y-8674460D02*
X10134467Y-8664936D01*
X10134467Y-8664936D02*
X10124944Y-8645889D01*
X10124944Y-8645889D02*
X10115420Y-8607793D01*
X10115420Y-8607793D02*
X10115420Y-8560174D01*
X10115420Y-8560174D02*
X10124944Y-8522079D01*
X10124944Y-8522079D02*
X10134467Y-8503031D01*
X10134467Y-8503031D02*
X10143991Y-8493508D01*
X10143991Y-8493508D02*
X10163039Y-8483984D01*
X10315420Y-8683984D02*
X10315420Y-8550650D01*
X10315420Y-8569698D02*
X10324944Y-8560174D01*
X10324944Y-8560174D02*
X10343991Y-8550650D01*
X10343991Y-8550650D02*
X10372563Y-8550650D01*
X10372563Y-8550650D02*
X10391610Y-8560174D01*
X10391610Y-8560174D02*
X10401134Y-8579222D01*
X10401134Y-8579222D02*
X10401134Y-8683984D01*
X10401134Y-8579222D02*
X10410658Y-8560174D01*
X10410658Y-8560174D02*
X10429705Y-8550650D01*
X10429705Y-8550650D02*
X10458277Y-8550650D01*
X10458277Y-8550650D02*
X10477325Y-8560174D01*
X10477325Y-8560174D02*
X10486848Y-8579222D01*
X10486848Y-8579222D02*
X10486848Y-8683984D01*
X10582086Y-8683984D02*
X10582086Y-8550650D01*
X10582086Y-8569698D02*
X10591610Y-8560174D01*
X10591610Y-8560174D02*
X10610658Y-8550650D01*
X10610658Y-8550650D02*
X10639229Y-8550650D01*
X10639229Y-8550650D02*
X10658277Y-8560174D01*
X10658277Y-8560174D02*
X10667801Y-8579222D01*
X10667801Y-8579222D02*
X10667801Y-8683984D01*
X10667801Y-8579222D02*
X10677325Y-8560174D01*
X10677325Y-8560174D02*
X10696372Y-8550650D01*
X10696372Y-8550650D02*
X10724944Y-8550650D01*
X10724944Y-8550650D02*
X10743991Y-8560174D01*
X10743991Y-8560174D02*
X10753515Y-8579222D01*
X10753515Y-8579222D02*
X10753515Y-8683984D01*
X11143991Y-8474460D02*
X10972563Y-8731603D01*
X11401134Y-8483984D02*
X11420182Y-8483984D01*
X11420182Y-8483984D02*
X11439229Y-8493508D01*
X11439229Y-8493508D02*
X11448753Y-8503031D01*
X11448753Y-8503031D02*
X11458277Y-8522079D01*
X11458277Y-8522079D02*
X11467801Y-8560174D01*
X11467801Y-8560174D02*
X11467801Y-8607793D01*
X11467801Y-8607793D02*
X11458277Y-8645889D01*
X11458277Y-8645889D02*
X11448753Y-8664936D01*
X11448753Y-8664936D02*
X11439229Y-8674460D01*
X11439229Y-8674460D02*
X11420182Y-8683984D01*
X11420182Y-8683984D02*
X11401134Y-8683984D01*
X11401134Y-8683984D02*
X11382086Y-8674460D01*
X11382086Y-8674460D02*
X11372563Y-8664936D01*
X11372563Y-8664936D02*
X11363039Y-8645889D01*
X11363039Y-8645889D02*
X11353515Y-8607793D01*
X11353515Y-8607793D02*
X11353515Y-8560174D01*
X11353515Y-8560174D02*
X11363039Y-8522079D01*
X11363039Y-8522079D02*
X11372563Y-8503031D01*
X11372563Y-8503031D02*
X11382086Y-8493508D01*
X11382086Y-8493508D02*
X11401134Y-8483984D01*
X11553515Y-8664936D02*
X11563039Y-8674460D01*
X11563039Y-8674460D02*
X11553515Y-8683984D01*
X11553515Y-8683984D02*
X11543991Y-8674460D01*
X11543991Y-8674460D02*
X11553515Y-8664936D01*
X11553515Y-8664936D02*
X11553515Y-8683984D01*
X11686848Y-8483984D02*
X11705896Y-8483984D01*
X11705896Y-8483984D02*
X11724944Y-8493508D01*
X11724944Y-8493508D02*
X11734467Y-8503031D01*
X11734467Y-8503031D02*
X11743991Y-8522079D01*
X11743991Y-8522079D02*
X11753515Y-8560174D01*
X11753515Y-8560174D02*
X11753515Y-8607793D01*
X11753515Y-8607793D02*
X11743991Y-8645889D01*
X11743991Y-8645889D02*
X11734467Y-8664936D01*
X11734467Y-8664936D02*
X11724944Y-8674460D01*
X11724944Y-8674460D02*
X11705896Y-8683984D01*
X11705896Y-8683984D02*
X11686848Y-8683984D01*
X11686848Y-8683984D02*
X11667801Y-8674460D01*
X11667801Y-8674460D02*
X11658277Y-8664936D01*
X11658277Y-8664936D02*
X11648753Y-8645889D01*
X11648753Y-8645889D02*
X11639229Y-8607793D01*
X11639229Y-8607793D02*
X11639229Y-8560174D01*
X11639229Y-8560174D02*
X11648753Y-8522079D01*
X11648753Y-8522079D02*
X11658277Y-8503031D01*
X11658277Y-8503031D02*
X11667801Y-8493508D01*
X11667801Y-8493508D02*
X11686848Y-8483984D01*
X11943991Y-8683984D02*
X11829706Y-8683984D01*
X11886848Y-8683984D02*
X11886848Y-8483984D01*
X11886848Y-8483984D02*
X11867801Y-8512555D01*
X11867801Y-8512555D02*
X11848753Y-8531603D01*
X11848753Y-8531603D02*
X11829706Y-8541127D01*
X12134467Y-8683984D02*
X12020182Y-8683984D01*
X12077325Y-8683984D02*
X12077325Y-8483984D01*
X12077325Y-8483984D02*
X12058277Y-8512555D01*
X12058277Y-8512555D02*
X12039229Y-8531603D01*
X12039229Y-8531603D02*
X12020182Y-8541127D01*
X12248753Y-8569698D02*
X12229706Y-8560174D01*
X12229706Y-8560174D02*
X12220182Y-8550650D01*
X12220182Y-8550650D02*
X12210658Y-8531603D01*
X12210658Y-8531603D02*
X12210658Y-8522079D01*
X12210658Y-8522079D02*
X12220182Y-8503031D01*
X12220182Y-8503031D02*
X12229706Y-8493508D01*
X12229706Y-8493508D02*
X12248753Y-8483984D01*
X12248753Y-8483984D02*
X12286848Y-8483984D01*
X12286848Y-8483984D02*
X12305896Y-8493508D01*
X12305896Y-8493508D02*
X12315420Y-8503031D01*
X12315420Y-8503031D02*
X12324944Y-8522079D01*
X12324944Y-8522079D02*
X12324944Y-8531603D01*
X12324944Y-8531603D02*
X12315420Y-8550650D01*
X12315420Y-8550650D02*
X12305896Y-8560174D01*
X12305896Y-8560174D02*
X12286848Y-8569698D01*
X12286848Y-8569698D02*
X12248753Y-8569698D01*
X12248753Y-8569698D02*
X12229706Y-8579222D01*
X12229706Y-8579222D02*
X12220182Y-8588746D01*
X12220182Y-8588746D02*
X12210658Y-8607793D01*
X12210658Y-8607793D02*
X12210658Y-8645889D01*
X12210658Y-8645889D02*
X12220182Y-8664936D01*
X12220182Y-8664936D02*
X12229706Y-8674460D01*
X12229706Y-8674460D02*
X12248753Y-8683984D01*
X12248753Y-8683984D02*
X12286848Y-8683984D01*
X12286848Y-8683984D02*
X12305896Y-8674460D01*
X12305896Y-8674460D02*
X12315420Y-8664936D01*
X12315420Y-8664936D02*
X12324944Y-8645889D01*
X12324944Y-8645889D02*
X12324944Y-8607793D01*
X12324944Y-8607793D02*
X12315420Y-8588746D01*
X12315420Y-8588746D02*
X12305896Y-8579222D01*
X12305896Y-8579222D02*
X12286848Y-8569698D01*
X12401134Y-8483984D02*
X12401134Y-8522079D01*
X12477325Y-8483984D02*
X12477325Y-8522079D01*
X12772563Y-8760174D02*
X12763039Y-8750650D01*
X12763039Y-8750650D02*
X12743991Y-8722079D01*
X12743991Y-8722079D02*
X12734468Y-8703031D01*
X12734468Y-8703031D02*
X12724944Y-8674460D01*
X12724944Y-8674460D02*
X12715420Y-8626841D01*
X12715420Y-8626841D02*
X12715420Y-8588746D01*
X12715420Y-8588746D02*
X12724944Y-8541127D01*
X12724944Y-8541127D02*
X12734468Y-8512555D01*
X12734468Y-8512555D02*
X12743991Y-8493508D01*
X12743991Y-8493508D02*
X12763039Y-8464936D01*
X12763039Y-8464936D02*
X12772563Y-8455412D01*
X12829706Y-8483984D02*
X12953515Y-8483984D01*
X12953515Y-8483984D02*
X12886848Y-8560174D01*
X12886848Y-8560174D02*
X12915420Y-8560174D01*
X12915420Y-8560174D02*
X12934468Y-8569698D01*
X12934468Y-8569698D02*
X12943991Y-8579222D01*
X12943991Y-8579222D02*
X12953515Y-8598270D01*
X12953515Y-8598270D02*
X12953515Y-8645889D01*
X12953515Y-8645889D02*
X12943991Y-8664936D01*
X12943991Y-8664936D02*
X12934468Y-8674460D01*
X12934468Y-8674460D02*
X12915420Y-8683984D01*
X12915420Y-8683984D02*
X12858277Y-8683984D01*
X12858277Y-8683984D02*
X12839229Y-8674460D01*
X12839229Y-8674460D02*
X12829706Y-8664936D01*
X13191610Y-8683984D02*
X13191610Y-8483984D01*
X13277325Y-8683984D02*
X13277325Y-8579222D01*
X13277325Y-8579222D02*
X13267801Y-8560174D01*
X13267801Y-8560174D02*
X13248753Y-8550650D01*
X13248753Y-8550650D02*
X13220182Y-8550650D01*
X13220182Y-8550650D02*
X13201134Y-8560174D01*
X13201134Y-8560174D02*
X13191610Y-8569698D01*
X13401134Y-8683984D02*
X13382087Y-8674460D01*
X13382087Y-8674460D02*
X13372563Y-8664936D01*
X13372563Y-8664936D02*
X13363039Y-8645889D01*
X13363039Y-8645889D02*
X13363039Y-8588746D01*
X13363039Y-8588746D02*
X13372563Y-8569698D01*
X13372563Y-8569698D02*
X13382087Y-8560174D01*
X13382087Y-8560174D02*
X13401134Y-8550650D01*
X13401134Y-8550650D02*
X13429706Y-8550650D01*
X13429706Y-8550650D02*
X13448753Y-8560174D01*
X13448753Y-8560174D02*
X13458277Y-8569698D01*
X13458277Y-8569698D02*
X13467801Y-8588746D01*
X13467801Y-8588746D02*
X13467801Y-8645889D01*
X13467801Y-8645889D02*
X13458277Y-8664936D01*
X13458277Y-8664936D02*
X13448753Y-8674460D01*
X13448753Y-8674460D02*
X13429706Y-8683984D01*
X13429706Y-8683984D02*
X13401134Y-8683984D01*
X13582087Y-8683984D02*
X13563039Y-8674460D01*
X13563039Y-8674460D02*
X13553515Y-8655412D01*
X13553515Y-8655412D02*
X13553515Y-8483984D01*
X13734468Y-8674460D02*
X13715420Y-8683984D01*
X13715420Y-8683984D02*
X13677325Y-8683984D01*
X13677325Y-8683984D02*
X13658277Y-8674460D01*
X13658277Y-8674460D02*
X13648753Y-8655412D01*
X13648753Y-8655412D02*
X13648753Y-8579222D01*
X13648753Y-8579222D02*
X13658277Y-8560174D01*
X13658277Y-8560174D02*
X13677325Y-8550650D01*
X13677325Y-8550650D02*
X13715420Y-8550650D01*
X13715420Y-8550650D02*
X13734468Y-8560174D01*
X13734468Y-8560174D02*
X13743991Y-8579222D01*
X13743991Y-8579222D02*
X13743991Y-8598270D01*
X13743991Y-8598270D02*
X13648753Y-8617317D01*
X13820182Y-8674460D02*
X13839230Y-8683984D01*
X13839230Y-8683984D02*
X13877325Y-8683984D01*
X13877325Y-8683984D02*
X13896372Y-8674460D01*
X13896372Y-8674460D02*
X13905896Y-8655412D01*
X13905896Y-8655412D02*
X13905896Y-8645889D01*
X13905896Y-8645889D02*
X13896372Y-8626841D01*
X13896372Y-8626841D02*
X13877325Y-8617317D01*
X13877325Y-8617317D02*
X13848753Y-8617317D01*
X13848753Y-8617317D02*
X13829706Y-8607793D01*
X13829706Y-8607793D02*
X13820182Y-8588746D01*
X13820182Y-8588746D02*
X13820182Y-8579222D01*
X13820182Y-8579222D02*
X13829706Y-8560174D01*
X13829706Y-8560174D02*
X13848753Y-8550650D01*
X13848753Y-8550650D02*
X13877325Y-8550650D01*
X13877325Y-8550650D02*
X13896372Y-8560174D01*
X13972563Y-8760174D02*
X13982087Y-8750650D01*
X13982087Y-8750650D02*
X14001134Y-8722079D01*
X14001134Y-8722079D02*
X14010658Y-8703031D01*
X14010658Y-8703031D02*
X14020182Y-8674460D01*
X14020182Y-8674460D02*
X14029706Y-8626841D01*
X14029706Y-8626841D02*
X14029706Y-8588746D01*
X14029706Y-8588746D02*
X14020182Y-8541127D01*
X14020182Y-8541127D02*
X14010658Y-8512555D01*
X14010658Y-8512555D02*
X14001134Y-8493508D01*
X14001134Y-8493508D02*
X13982087Y-8464936D01*
X13982087Y-8464936D02*
X13972563Y-8455412D01*
D12*
X9197500Y-8856500D02*
G75*
G02*
X9147500Y-8856500I-25000J0D01*
G01*
X9147500Y-8856500D02*
G75*
G02*
X9197500Y-8856500I25000J0D01*
G01*
D11*
X9496372Y-8747984D02*
X9515420Y-8747984D01*
X9515420Y-8747984D02*
X9534467Y-8757508D01*
X9534467Y-8757508D02*
X9543991Y-8767031D01*
X9543991Y-8767031D02*
X9553515Y-8786079D01*
X9553515Y-8786079D02*
X9563039Y-8824174D01*
X9563039Y-8824174D02*
X9563039Y-8871793D01*
X9563039Y-8871793D02*
X9553515Y-8909889D01*
X9553515Y-8909889D02*
X9543991Y-8928936D01*
X9543991Y-8928936D02*
X9534467Y-8938460D01*
X9534467Y-8938460D02*
X9515420Y-8947984D01*
X9515420Y-8947984D02*
X9496372Y-8947984D01*
X9496372Y-8947984D02*
X9477324Y-8938460D01*
X9477324Y-8938460D02*
X9467801Y-8928936D01*
X9467801Y-8928936D02*
X9458277Y-8909889D01*
X9458277Y-8909889D02*
X9448753Y-8871793D01*
X9448753Y-8871793D02*
X9448753Y-8824174D01*
X9448753Y-8824174D02*
X9458277Y-8786079D01*
X9458277Y-8786079D02*
X9467801Y-8767031D01*
X9467801Y-8767031D02*
X9477324Y-8757508D01*
X9477324Y-8757508D02*
X9496372Y-8747984D01*
X9648753Y-8928936D02*
X9658277Y-8938460D01*
X9658277Y-8938460D02*
X9648753Y-8947984D01*
X9648753Y-8947984D02*
X9639229Y-8938460D01*
X9639229Y-8938460D02*
X9648753Y-8928936D01*
X9648753Y-8928936D02*
X9648753Y-8947984D01*
X9839229Y-8747984D02*
X9743991Y-8747984D01*
X9743991Y-8747984D02*
X9734467Y-8843222D01*
X9734467Y-8843222D02*
X9743991Y-8833698D01*
X9743991Y-8833698D02*
X9763039Y-8824174D01*
X9763039Y-8824174D02*
X9810658Y-8824174D01*
X9810658Y-8824174D02*
X9829705Y-8833698D01*
X9829705Y-8833698D02*
X9839229Y-8843222D01*
X9839229Y-8843222D02*
X9848753Y-8862270D01*
X9848753Y-8862270D02*
X9848753Y-8909889D01*
X9848753Y-8909889D02*
X9839229Y-8928936D01*
X9839229Y-8928936D02*
X9829705Y-8938460D01*
X9829705Y-8938460D02*
X9810658Y-8947984D01*
X9810658Y-8947984D02*
X9763039Y-8947984D01*
X9763039Y-8947984D02*
X9743991Y-8938460D01*
X9743991Y-8938460D02*
X9734467Y-8928936D01*
X9972563Y-8747984D02*
X9991610Y-8747984D01*
X9991610Y-8747984D02*
X10010658Y-8757508D01*
X10010658Y-8757508D02*
X10020182Y-8767031D01*
X10020182Y-8767031D02*
X10029705Y-8786079D01*
X10029705Y-8786079D02*
X10039229Y-8824174D01*
X10039229Y-8824174D02*
X10039229Y-8871793D01*
X10039229Y-8871793D02*
X10029705Y-8909889D01*
X10029705Y-8909889D02*
X10020182Y-8928936D01*
X10020182Y-8928936D02*
X10010658Y-8938460D01*
X10010658Y-8938460D02*
X9991610Y-8947984D01*
X9991610Y-8947984D02*
X9972563Y-8947984D01*
X9972563Y-8947984D02*
X9953515Y-8938460D01*
X9953515Y-8938460D02*
X9943991Y-8928936D01*
X9943991Y-8928936D02*
X9934467Y-8909889D01*
X9934467Y-8909889D02*
X9924944Y-8871793D01*
X9924944Y-8871793D02*
X9924944Y-8824174D01*
X9924944Y-8824174D02*
X9934467Y-8786079D01*
X9934467Y-8786079D02*
X9943991Y-8767031D01*
X9943991Y-8767031D02*
X9953515Y-8757508D01*
X9953515Y-8757508D02*
X9972563Y-8747984D01*
X10163039Y-8747984D02*
X10182086Y-8747984D01*
X10182086Y-8747984D02*
X10201134Y-8757508D01*
X10201134Y-8757508D02*
X10210658Y-8767031D01*
X10210658Y-8767031D02*
X10220182Y-8786079D01*
X10220182Y-8786079D02*
X10229705Y-8824174D01*
X10229705Y-8824174D02*
X10229705Y-8871793D01*
X10229705Y-8871793D02*
X10220182Y-8909889D01*
X10220182Y-8909889D02*
X10210658Y-8928936D01*
X10210658Y-8928936D02*
X10201134Y-8938460D01*
X10201134Y-8938460D02*
X10182086Y-8947984D01*
X10182086Y-8947984D02*
X10163039Y-8947984D01*
X10163039Y-8947984D02*
X10143991Y-8938460D01*
X10143991Y-8938460D02*
X10134467Y-8928936D01*
X10134467Y-8928936D02*
X10124944Y-8909889D01*
X10124944Y-8909889D02*
X10115420Y-8871793D01*
X10115420Y-8871793D02*
X10115420Y-8824174D01*
X10115420Y-8824174D02*
X10124944Y-8786079D01*
X10124944Y-8786079D02*
X10134467Y-8767031D01*
X10134467Y-8767031D02*
X10143991Y-8757508D01*
X10143991Y-8757508D02*
X10163039Y-8747984D01*
X10315420Y-8947984D02*
X10315420Y-8814650D01*
X10315420Y-8833698D02*
X10324944Y-8824174D01*
X10324944Y-8824174D02*
X10343991Y-8814650D01*
X10343991Y-8814650D02*
X10372563Y-8814650D01*
X10372563Y-8814650D02*
X10391610Y-8824174D01*
X10391610Y-8824174D02*
X10401134Y-8843222D01*
X10401134Y-8843222D02*
X10401134Y-8947984D01*
X10401134Y-8843222D02*
X10410658Y-8824174D01*
X10410658Y-8824174D02*
X10429705Y-8814650D01*
X10429705Y-8814650D02*
X10458277Y-8814650D01*
X10458277Y-8814650D02*
X10477325Y-8824174D01*
X10477325Y-8824174D02*
X10486848Y-8843222D01*
X10486848Y-8843222D02*
X10486848Y-8947984D01*
X10582086Y-8947984D02*
X10582086Y-8814650D01*
X10582086Y-8833698D02*
X10591610Y-8824174D01*
X10591610Y-8824174D02*
X10610658Y-8814650D01*
X10610658Y-8814650D02*
X10639229Y-8814650D01*
X10639229Y-8814650D02*
X10658277Y-8824174D01*
X10658277Y-8824174D02*
X10667801Y-8843222D01*
X10667801Y-8843222D02*
X10667801Y-8947984D01*
X10667801Y-8843222D02*
X10677325Y-8824174D01*
X10677325Y-8824174D02*
X10696372Y-8814650D01*
X10696372Y-8814650D02*
X10724944Y-8814650D01*
X10724944Y-8814650D02*
X10743991Y-8824174D01*
X10743991Y-8824174D02*
X10753515Y-8843222D01*
X10753515Y-8843222D02*
X10753515Y-8947984D01*
X11143991Y-8738460D02*
X10972563Y-8995603D01*
X11401134Y-8747984D02*
X11420182Y-8747984D01*
X11420182Y-8747984D02*
X11439229Y-8757508D01*
X11439229Y-8757508D02*
X11448753Y-8767031D01*
X11448753Y-8767031D02*
X11458277Y-8786079D01*
X11458277Y-8786079D02*
X11467801Y-8824174D01*
X11467801Y-8824174D02*
X11467801Y-8871793D01*
X11467801Y-8871793D02*
X11458277Y-8909889D01*
X11458277Y-8909889D02*
X11448753Y-8928936D01*
X11448753Y-8928936D02*
X11439229Y-8938460D01*
X11439229Y-8938460D02*
X11420182Y-8947984D01*
X11420182Y-8947984D02*
X11401134Y-8947984D01*
X11401134Y-8947984D02*
X11382086Y-8938460D01*
X11382086Y-8938460D02*
X11372563Y-8928936D01*
X11372563Y-8928936D02*
X11363039Y-8909889D01*
X11363039Y-8909889D02*
X11353515Y-8871793D01*
X11353515Y-8871793D02*
X11353515Y-8824174D01*
X11353515Y-8824174D02*
X11363039Y-8786079D01*
X11363039Y-8786079D02*
X11372563Y-8767031D01*
X11372563Y-8767031D02*
X11382086Y-8757508D01*
X11382086Y-8757508D02*
X11401134Y-8747984D01*
X11553515Y-8928936D02*
X11563039Y-8938460D01*
X11563039Y-8938460D02*
X11553515Y-8947984D01*
X11553515Y-8947984D02*
X11543991Y-8938460D01*
X11543991Y-8938460D02*
X11553515Y-8928936D01*
X11553515Y-8928936D02*
X11553515Y-8947984D01*
X11686848Y-8747984D02*
X11705896Y-8747984D01*
X11705896Y-8747984D02*
X11724944Y-8757508D01*
X11724944Y-8757508D02*
X11734467Y-8767031D01*
X11734467Y-8767031D02*
X11743991Y-8786079D01*
X11743991Y-8786079D02*
X11753515Y-8824174D01*
X11753515Y-8824174D02*
X11753515Y-8871793D01*
X11753515Y-8871793D02*
X11743991Y-8909889D01*
X11743991Y-8909889D02*
X11734467Y-8928936D01*
X11734467Y-8928936D02*
X11724944Y-8938460D01*
X11724944Y-8938460D02*
X11705896Y-8947984D01*
X11705896Y-8947984D02*
X11686848Y-8947984D01*
X11686848Y-8947984D02*
X11667801Y-8938460D01*
X11667801Y-8938460D02*
X11658277Y-8928936D01*
X11658277Y-8928936D02*
X11648753Y-8909889D01*
X11648753Y-8909889D02*
X11639229Y-8871793D01*
X11639229Y-8871793D02*
X11639229Y-8824174D01*
X11639229Y-8824174D02*
X11648753Y-8786079D01*
X11648753Y-8786079D02*
X11658277Y-8767031D01*
X11658277Y-8767031D02*
X11667801Y-8757508D01*
X11667801Y-8757508D02*
X11686848Y-8747984D01*
X11943991Y-8947984D02*
X11829706Y-8947984D01*
X11886848Y-8947984D02*
X11886848Y-8747984D01*
X11886848Y-8747984D02*
X11867801Y-8776555D01*
X11867801Y-8776555D02*
X11848753Y-8795603D01*
X11848753Y-8795603D02*
X11829706Y-8805127D01*
X12039229Y-8947984D02*
X12077325Y-8947984D01*
X12077325Y-8947984D02*
X12096372Y-8938460D01*
X12096372Y-8938460D02*
X12105896Y-8928936D01*
X12105896Y-8928936D02*
X12124944Y-8900365D01*
X12124944Y-8900365D02*
X12134467Y-8862270D01*
X12134467Y-8862270D02*
X12134467Y-8786079D01*
X12134467Y-8786079D02*
X12124944Y-8767031D01*
X12124944Y-8767031D02*
X12115420Y-8757508D01*
X12115420Y-8757508D02*
X12096372Y-8747984D01*
X12096372Y-8747984D02*
X12058277Y-8747984D01*
X12058277Y-8747984D02*
X12039229Y-8757508D01*
X12039229Y-8757508D02*
X12029706Y-8767031D01*
X12029706Y-8767031D02*
X12020182Y-8786079D01*
X12020182Y-8786079D02*
X12020182Y-8833698D01*
X12020182Y-8833698D02*
X12029706Y-8852746D01*
X12029706Y-8852746D02*
X12039229Y-8862270D01*
X12039229Y-8862270D02*
X12058277Y-8871793D01*
X12058277Y-8871793D02*
X12096372Y-8871793D01*
X12096372Y-8871793D02*
X12115420Y-8862270D01*
X12115420Y-8862270D02*
X12124944Y-8852746D01*
X12124944Y-8852746D02*
X12134467Y-8833698D01*
X12201134Y-8747984D02*
X12334467Y-8747984D01*
X12334467Y-8747984D02*
X12248753Y-8947984D01*
X12401134Y-8747984D02*
X12401134Y-8786079D01*
X12477325Y-8747984D02*
X12477325Y-8786079D01*
X12772563Y-9024174D02*
X12763039Y-9014650D01*
X12763039Y-9014650D02*
X12743991Y-8986079D01*
X12743991Y-8986079D02*
X12734468Y-8967031D01*
X12734468Y-8967031D02*
X12724944Y-8938460D01*
X12724944Y-8938460D02*
X12715420Y-8890841D01*
X12715420Y-8890841D02*
X12715420Y-8852746D01*
X12715420Y-8852746D02*
X12724944Y-8805127D01*
X12724944Y-8805127D02*
X12734468Y-8776555D01*
X12734468Y-8776555D02*
X12743991Y-8757508D01*
X12743991Y-8757508D02*
X12763039Y-8728936D01*
X12763039Y-8728936D02*
X12772563Y-8719412D01*
X12943991Y-8747984D02*
X12848753Y-8747984D01*
X12848753Y-8747984D02*
X12839229Y-8843222D01*
X12839229Y-8843222D02*
X12848753Y-8833698D01*
X12848753Y-8833698D02*
X12867801Y-8824174D01*
X12867801Y-8824174D02*
X12915420Y-8824174D01*
X12915420Y-8824174D02*
X12934468Y-8833698D01*
X12934468Y-8833698D02*
X12943991Y-8843222D01*
X12943991Y-8843222D02*
X12953515Y-8862270D01*
X12953515Y-8862270D02*
X12953515Y-8909889D01*
X12953515Y-8909889D02*
X12943991Y-8928936D01*
X12943991Y-8928936D02*
X12934468Y-8938460D01*
X12934468Y-8938460D02*
X12915420Y-8947984D01*
X12915420Y-8947984D02*
X12867801Y-8947984D01*
X12867801Y-8947984D02*
X12848753Y-8938460D01*
X12848753Y-8938460D02*
X12839229Y-8928936D01*
X13191610Y-8947984D02*
X13191610Y-8747984D01*
X13277325Y-8947984D02*
X13277325Y-8843222D01*
X13277325Y-8843222D02*
X13267801Y-8824174D01*
X13267801Y-8824174D02*
X13248753Y-8814650D01*
X13248753Y-8814650D02*
X13220182Y-8814650D01*
X13220182Y-8814650D02*
X13201134Y-8824174D01*
X13201134Y-8824174D02*
X13191610Y-8833698D01*
X13401134Y-8947984D02*
X13382087Y-8938460D01*
X13382087Y-8938460D02*
X13372563Y-8928936D01*
X13372563Y-8928936D02*
X13363039Y-8909889D01*
X13363039Y-8909889D02*
X13363039Y-8852746D01*
X13363039Y-8852746D02*
X13372563Y-8833698D01*
X13372563Y-8833698D02*
X13382087Y-8824174D01*
X13382087Y-8824174D02*
X13401134Y-8814650D01*
X13401134Y-8814650D02*
X13429706Y-8814650D01*
X13429706Y-8814650D02*
X13448753Y-8824174D01*
X13448753Y-8824174D02*
X13458277Y-8833698D01*
X13458277Y-8833698D02*
X13467801Y-8852746D01*
X13467801Y-8852746D02*
X13467801Y-8909889D01*
X13467801Y-8909889D02*
X13458277Y-8928936D01*
X13458277Y-8928936D02*
X13448753Y-8938460D01*
X13448753Y-8938460D02*
X13429706Y-8947984D01*
X13429706Y-8947984D02*
X13401134Y-8947984D01*
X13582087Y-8947984D02*
X13563039Y-8938460D01*
X13563039Y-8938460D02*
X13553515Y-8919412D01*
X13553515Y-8919412D02*
X13553515Y-8747984D01*
X13734468Y-8938460D02*
X13715420Y-8947984D01*
X13715420Y-8947984D02*
X13677325Y-8947984D01*
X13677325Y-8947984D02*
X13658277Y-8938460D01*
X13658277Y-8938460D02*
X13648753Y-8919412D01*
X13648753Y-8919412D02*
X13648753Y-8843222D01*
X13648753Y-8843222D02*
X13658277Y-8824174D01*
X13658277Y-8824174D02*
X13677325Y-8814650D01*
X13677325Y-8814650D02*
X13715420Y-8814650D01*
X13715420Y-8814650D02*
X13734468Y-8824174D01*
X13734468Y-8824174D02*
X13743991Y-8843222D01*
X13743991Y-8843222D02*
X13743991Y-8862270D01*
X13743991Y-8862270D02*
X13648753Y-8881317D01*
X13820182Y-8938460D02*
X13839230Y-8947984D01*
X13839230Y-8947984D02*
X13877325Y-8947984D01*
X13877325Y-8947984D02*
X13896372Y-8938460D01*
X13896372Y-8938460D02*
X13905896Y-8919412D01*
X13905896Y-8919412D02*
X13905896Y-8909889D01*
X13905896Y-8909889D02*
X13896372Y-8890841D01*
X13896372Y-8890841D02*
X13877325Y-8881317D01*
X13877325Y-8881317D02*
X13848753Y-8881317D01*
X13848753Y-8881317D02*
X13829706Y-8871793D01*
X13829706Y-8871793D02*
X13820182Y-8852746D01*
X13820182Y-8852746D02*
X13820182Y-8843222D01*
X13820182Y-8843222D02*
X13829706Y-8824174D01*
X13829706Y-8824174D02*
X13848753Y-8814650D01*
X13848753Y-8814650D02*
X13877325Y-8814650D01*
X13877325Y-8814650D02*
X13896372Y-8824174D01*
X13972563Y-9024174D02*
X13982087Y-9014650D01*
X13982087Y-9014650D02*
X14001134Y-8986079D01*
X14001134Y-8986079D02*
X14010658Y-8967031D01*
X14010658Y-8967031D02*
X14020182Y-8938460D01*
X14020182Y-8938460D02*
X14029706Y-8890841D01*
X14029706Y-8890841D02*
X14029706Y-8852746D01*
X14029706Y-8852746D02*
X14020182Y-8805127D01*
X14020182Y-8805127D02*
X14010658Y-8776555D01*
X14010658Y-8776555D02*
X14001134Y-8757508D01*
X14001134Y-8757508D02*
X13982087Y-8728936D01*
X13982087Y-8728936D02*
X13972563Y-8719412D01*
D12*
X9147500Y-9070500D02*
X9147500Y-9170500D01*
X9097500Y-9120500D02*
X9197500Y-9120500D01*
D11*
X9563039Y-9211984D02*
X9448753Y-9211984D01*
X9505896Y-9211984D02*
X9505896Y-9011984D01*
X9505896Y-9011984D02*
X9486848Y-9040555D01*
X9486848Y-9040555D02*
X9467801Y-9059603D01*
X9467801Y-9059603D02*
X9448753Y-9069127D01*
X9648753Y-9192936D02*
X9658277Y-9202460D01*
X9658277Y-9202460D02*
X9648753Y-9211984D01*
X9648753Y-9211984D02*
X9639229Y-9202460D01*
X9639229Y-9202460D02*
X9648753Y-9192936D01*
X9648753Y-9192936D02*
X9648753Y-9211984D01*
X9782086Y-9011984D02*
X9801134Y-9011984D01*
X9801134Y-9011984D02*
X9820182Y-9021508D01*
X9820182Y-9021508D02*
X9829705Y-9031031D01*
X9829705Y-9031031D02*
X9839229Y-9050079D01*
X9839229Y-9050079D02*
X9848753Y-9088174D01*
X9848753Y-9088174D02*
X9848753Y-9135793D01*
X9848753Y-9135793D02*
X9839229Y-9173889D01*
X9839229Y-9173889D02*
X9829705Y-9192936D01*
X9829705Y-9192936D02*
X9820182Y-9202460D01*
X9820182Y-9202460D02*
X9801134Y-9211984D01*
X9801134Y-9211984D02*
X9782086Y-9211984D01*
X9782086Y-9211984D02*
X9763039Y-9202460D01*
X9763039Y-9202460D02*
X9753515Y-9192936D01*
X9753515Y-9192936D02*
X9743991Y-9173889D01*
X9743991Y-9173889D02*
X9734467Y-9135793D01*
X9734467Y-9135793D02*
X9734467Y-9088174D01*
X9734467Y-9088174D02*
X9743991Y-9050079D01*
X9743991Y-9050079D02*
X9753515Y-9031031D01*
X9753515Y-9031031D02*
X9763039Y-9021508D01*
X9763039Y-9021508D02*
X9782086Y-9011984D01*
X9972563Y-9011984D02*
X9991610Y-9011984D01*
X9991610Y-9011984D02*
X10010658Y-9021508D01*
X10010658Y-9021508D02*
X10020182Y-9031031D01*
X10020182Y-9031031D02*
X10029705Y-9050079D01*
X10029705Y-9050079D02*
X10039229Y-9088174D01*
X10039229Y-9088174D02*
X10039229Y-9135793D01*
X10039229Y-9135793D02*
X10029705Y-9173889D01*
X10029705Y-9173889D02*
X10020182Y-9192936D01*
X10020182Y-9192936D02*
X10010658Y-9202460D01*
X10010658Y-9202460D02*
X9991610Y-9211984D01*
X9991610Y-9211984D02*
X9972563Y-9211984D01*
X9972563Y-9211984D02*
X9953515Y-9202460D01*
X9953515Y-9202460D02*
X9943991Y-9192936D01*
X9943991Y-9192936D02*
X9934467Y-9173889D01*
X9934467Y-9173889D02*
X9924944Y-9135793D01*
X9924944Y-9135793D02*
X9924944Y-9088174D01*
X9924944Y-9088174D02*
X9934467Y-9050079D01*
X9934467Y-9050079D02*
X9943991Y-9031031D01*
X9943991Y-9031031D02*
X9953515Y-9021508D01*
X9953515Y-9021508D02*
X9972563Y-9011984D01*
X10163039Y-9011984D02*
X10182086Y-9011984D01*
X10182086Y-9011984D02*
X10201134Y-9021508D01*
X10201134Y-9021508D02*
X10210658Y-9031031D01*
X10210658Y-9031031D02*
X10220182Y-9050079D01*
X10220182Y-9050079D02*
X10229705Y-9088174D01*
X10229705Y-9088174D02*
X10229705Y-9135793D01*
X10229705Y-9135793D02*
X10220182Y-9173889D01*
X10220182Y-9173889D02*
X10210658Y-9192936D01*
X10210658Y-9192936D02*
X10201134Y-9202460D01*
X10201134Y-9202460D02*
X10182086Y-9211984D01*
X10182086Y-9211984D02*
X10163039Y-9211984D01*
X10163039Y-9211984D02*
X10143991Y-9202460D01*
X10143991Y-9202460D02*
X10134467Y-9192936D01*
X10134467Y-9192936D02*
X10124944Y-9173889D01*
X10124944Y-9173889D02*
X10115420Y-9135793D01*
X10115420Y-9135793D02*
X10115420Y-9088174D01*
X10115420Y-9088174D02*
X10124944Y-9050079D01*
X10124944Y-9050079D02*
X10134467Y-9031031D01*
X10134467Y-9031031D02*
X10143991Y-9021508D01*
X10143991Y-9021508D02*
X10163039Y-9011984D01*
X10315420Y-9211984D02*
X10315420Y-9078650D01*
X10315420Y-9097698D02*
X10324944Y-9088174D01*
X10324944Y-9088174D02*
X10343991Y-9078650D01*
X10343991Y-9078650D02*
X10372563Y-9078650D01*
X10372563Y-9078650D02*
X10391610Y-9088174D01*
X10391610Y-9088174D02*
X10401134Y-9107222D01*
X10401134Y-9107222D02*
X10401134Y-9211984D01*
X10401134Y-9107222D02*
X10410658Y-9088174D01*
X10410658Y-9088174D02*
X10429705Y-9078650D01*
X10429705Y-9078650D02*
X10458277Y-9078650D01*
X10458277Y-9078650D02*
X10477325Y-9088174D01*
X10477325Y-9088174D02*
X10486848Y-9107222D01*
X10486848Y-9107222D02*
X10486848Y-9211984D01*
X10582086Y-9211984D02*
X10582086Y-9078650D01*
X10582086Y-9097698D02*
X10591610Y-9088174D01*
X10591610Y-9088174D02*
X10610658Y-9078650D01*
X10610658Y-9078650D02*
X10639229Y-9078650D01*
X10639229Y-9078650D02*
X10658277Y-9088174D01*
X10658277Y-9088174D02*
X10667801Y-9107222D01*
X10667801Y-9107222D02*
X10667801Y-9211984D01*
X10667801Y-9107222D02*
X10677325Y-9088174D01*
X10677325Y-9088174D02*
X10696372Y-9078650D01*
X10696372Y-9078650D02*
X10724944Y-9078650D01*
X10724944Y-9078650D02*
X10743991Y-9088174D01*
X10743991Y-9088174D02*
X10753515Y-9107222D01*
X10753515Y-9107222D02*
X10753515Y-9211984D01*
X11143991Y-9002460D02*
X10972563Y-9259603D01*
X11401134Y-9011984D02*
X11420182Y-9011984D01*
X11420182Y-9011984D02*
X11439229Y-9021508D01*
X11439229Y-9021508D02*
X11448753Y-9031031D01*
X11448753Y-9031031D02*
X11458277Y-9050079D01*
X11458277Y-9050079D02*
X11467801Y-9088174D01*
X11467801Y-9088174D02*
X11467801Y-9135793D01*
X11467801Y-9135793D02*
X11458277Y-9173889D01*
X11458277Y-9173889D02*
X11448753Y-9192936D01*
X11448753Y-9192936D02*
X11439229Y-9202460D01*
X11439229Y-9202460D02*
X11420182Y-9211984D01*
X11420182Y-9211984D02*
X11401134Y-9211984D01*
X11401134Y-9211984D02*
X11382086Y-9202460D01*
X11382086Y-9202460D02*
X11372563Y-9192936D01*
X11372563Y-9192936D02*
X11363039Y-9173889D01*
X11363039Y-9173889D02*
X11353515Y-9135793D01*
X11353515Y-9135793D02*
X11353515Y-9088174D01*
X11353515Y-9088174D02*
X11363039Y-9050079D01*
X11363039Y-9050079D02*
X11372563Y-9031031D01*
X11372563Y-9031031D02*
X11382086Y-9021508D01*
X11382086Y-9021508D02*
X11401134Y-9011984D01*
X11553515Y-9192936D02*
X11563039Y-9202460D01*
X11563039Y-9202460D02*
X11553515Y-9211984D01*
X11553515Y-9211984D02*
X11543991Y-9202460D01*
X11543991Y-9202460D02*
X11553515Y-9192936D01*
X11553515Y-9192936D02*
X11553515Y-9211984D01*
X11686848Y-9011984D02*
X11705896Y-9011984D01*
X11705896Y-9011984D02*
X11724944Y-9021508D01*
X11724944Y-9021508D02*
X11734467Y-9031031D01*
X11734467Y-9031031D02*
X11743991Y-9050079D01*
X11743991Y-9050079D02*
X11753515Y-9088174D01*
X11753515Y-9088174D02*
X11753515Y-9135793D01*
X11753515Y-9135793D02*
X11743991Y-9173889D01*
X11743991Y-9173889D02*
X11734467Y-9192936D01*
X11734467Y-9192936D02*
X11724944Y-9202460D01*
X11724944Y-9202460D02*
X11705896Y-9211984D01*
X11705896Y-9211984D02*
X11686848Y-9211984D01*
X11686848Y-9211984D02*
X11667801Y-9202460D01*
X11667801Y-9202460D02*
X11658277Y-9192936D01*
X11658277Y-9192936D02*
X11648753Y-9173889D01*
X11648753Y-9173889D02*
X11639229Y-9135793D01*
X11639229Y-9135793D02*
X11639229Y-9088174D01*
X11639229Y-9088174D02*
X11648753Y-9050079D01*
X11648753Y-9050079D02*
X11658277Y-9031031D01*
X11658277Y-9031031D02*
X11667801Y-9021508D01*
X11667801Y-9021508D02*
X11686848Y-9011984D01*
X11820182Y-9011984D02*
X11943991Y-9011984D01*
X11943991Y-9011984D02*
X11877325Y-9088174D01*
X11877325Y-9088174D02*
X11905896Y-9088174D01*
X11905896Y-9088174D02*
X11924944Y-9097698D01*
X11924944Y-9097698D02*
X11934467Y-9107222D01*
X11934467Y-9107222D02*
X11943991Y-9126270D01*
X11943991Y-9126270D02*
X11943991Y-9173889D01*
X11943991Y-9173889D02*
X11934467Y-9192936D01*
X11934467Y-9192936D02*
X11924944Y-9202460D01*
X11924944Y-9202460D02*
X11905896Y-9211984D01*
X11905896Y-9211984D02*
X11848753Y-9211984D01*
X11848753Y-9211984D02*
X11829706Y-9202460D01*
X11829706Y-9202460D02*
X11820182Y-9192936D01*
X12039229Y-9211984D02*
X12077325Y-9211984D01*
X12077325Y-9211984D02*
X12096372Y-9202460D01*
X12096372Y-9202460D02*
X12105896Y-9192936D01*
X12105896Y-9192936D02*
X12124944Y-9164365D01*
X12124944Y-9164365D02*
X12134467Y-9126270D01*
X12134467Y-9126270D02*
X12134467Y-9050079D01*
X12134467Y-9050079D02*
X12124944Y-9031031D01*
X12124944Y-9031031D02*
X12115420Y-9021508D01*
X12115420Y-9021508D02*
X12096372Y-9011984D01*
X12096372Y-9011984D02*
X12058277Y-9011984D01*
X12058277Y-9011984D02*
X12039229Y-9021508D01*
X12039229Y-9021508D02*
X12029706Y-9031031D01*
X12029706Y-9031031D02*
X12020182Y-9050079D01*
X12020182Y-9050079D02*
X12020182Y-9097698D01*
X12020182Y-9097698D02*
X12029706Y-9116746D01*
X12029706Y-9116746D02*
X12039229Y-9126270D01*
X12039229Y-9126270D02*
X12058277Y-9135793D01*
X12058277Y-9135793D02*
X12096372Y-9135793D01*
X12096372Y-9135793D02*
X12115420Y-9126270D01*
X12115420Y-9126270D02*
X12124944Y-9116746D01*
X12124944Y-9116746D02*
X12134467Y-9097698D01*
X12305896Y-9078650D02*
X12305896Y-9211984D01*
X12258277Y-9002460D02*
X12210658Y-9145317D01*
X12210658Y-9145317D02*
X12334467Y-9145317D01*
X12401134Y-9011984D02*
X12401134Y-9050079D01*
X12477325Y-9011984D02*
X12477325Y-9050079D01*
X12772563Y-9288174D02*
X12763039Y-9278650D01*
X12763039Y-9278650D02*
X12743991Y-9250079D01*
X12743991Y-9250079D02*
X12734468Y-9231031D01*
X12734468Y-9231031D02*
X12724944Y-9202460D01*
X12724944Y-9202460D02*
X12715420Y-9154841D01*
X12715420Y-9154841D02*
X12715420Y-9116746D01*
X12715420Y-9116746D02*
X12724944Y-9069127D01*
X12724944Y-9069127D02*
X12734468Y-9040555D01*
X12734468Y-9040555D02*
X12743991Y-9021508D01*
X12743991Y-9021508D02*
X12763039Y-8992936D01*
X12763039Y-8992936D02*
X12772563Y-8983412D01*
X12943991Y-9011984D02*
X12848753Y-9011984D01*
X12848753Y-9011984D02*
X12839229Y-9107222D01*
X12839229Y-9107222D02*
X12848753Y-9097698D01*
X12848753Y-9097698D02*
X12867801Y-9088174D01*
X12867801Y-9088174D02*
X12915420Y-9088174D01*
X12915420Y-9088174D02*
X12934468Y-9097698D01*
X12934468Y-9097698D02*
X12943991Y-9107222D01*
X12943991Y-9107222D02*
X12953515Y-9126270D01*
X12953515Y-9126270D02*
X12953515Y-9173889D01*
X12953515Y-9173889D02*
X12943991Y-9192936D01*
X12943991Y-9192936D02*
X12934468Y-9202460D01*
X12934468Y-9202460D02*
X12915420Y-9211984D01*
X12915420Y-9211984D02*
X12867801Y-9211984D01*
X12867801Y-9211984D02*
X12848753Y-9202460D01*
X12848753Y-9202460D02*
X12839229Y-9192936D01*
X13191610Y-9211984D02*
X13191610Y-9011984D01*
X13277325Y-9211984D02*
X13277325Y-9107222D01*
X13277325Y-9107222D02*
X13267801Y-9088174D01*
X13267801Y-9088174D02*
X13248753Y-9078650D01*
X13248753Y-9078650D02*
X13220182Y-9078650D01*
X13220182Y-9078650D02*
X13201134Y-9088174D01*
X13201134Y-9088174D02*
X13191610Y-9097698D01*
X13401134Y-9211984D02*
X13382087Y-9202460D01*
X13382087Y-9202460D02*
X13372563Y-9192936D01*
X13372563Y-9192936D02*
X13363039Y-9173889D01*
X13363039Y-9173889D02*
X13363039Y-9116746D01*
X13363039Y-9116746D02*
X13372563Y-9097698D01*
X13372563Y-9097698D02*
X13382087Y-9088174D01*
X13382087Y-9088174D02*
X13401134Y-9078650D01*
X13401134Y-9078650D02*
X13429706Y-9078650D01*
X13429706Y-9078650D02*
X13448753Y-9088174D01*
X13448753Y-9088174D02*
X13458277Y-9097698D01*
X13458277Y-9097698D02*
X13467801Y-9116746D01*
X13467801Y-9116746D02*
X13467801Y-9173889D01*
X13467801Y-9173889D02*
X13458277Y-9192936D01*
X13458277Y-9192936D02*
X13448753Y-9202460D01*
X13448753Y-9202460D02*
X13429706Y-9211984D01*
X13429706Y-9211984D02*
X13401134Y-9211984D01*
X13582087Y-9211984D02*
X13563039Y-9202460D01*
X13563039Y-9202460D02*
X13553515Y-9183412D01*
X13553515Y-9183412D02*
X13553515Y-9011984D01*
X13734468Y-9202460D02*
X13715420Y-9211984D01*
X13715420Y-9211984D02*
X13677325Y-9211984D01*
X13677325Y-9211984D02*
X13658277Y-9202460D01*
X13658277Y-9202460D02*
X13648753Y-9183412D01*
X13648753Y-9183412D02*
X13648753Y-9107222D01*
X13648753Y-9107222D02*
X13658277Y-9088174D01*
X13658277Y-9088174D02*
X13677325Y-9078650D01*
X13677325Y-9078650D02*
X13715420Y-9078650D01*
X13715420Y-9078650D02*
X13734468Y-9088174D01*
X13734468Y-9088174D02*
X13743991Y-9107222D01*
X13743991Y-9107222D02*
X13743991Y-9126270D01*
X13743991Y-9126270D02*
X13648753Y-9145317D01*
X13820182Y-9202460D02*
X13839230Y-9211984D01*
X13839230Y-9211984D02*
X13877325Y-9211984D01*
X13877325Y-9211984D02*
X13896372Y-9202460D01*
X13896372Y-9202460D02*
X13905896Y-9183412D01*
X13905896Y-9183412D02*
X13905896Y-9173889D01*
X13905896Y-9173889D02*
X13896372Y-9154841D01*
X13896372Y-9154841D02*
X13877325Y-9145317D01*
X13877325Y-9145317D02*
X13848753Y-9145317D01*
X13848753Y-9145317D02*
X13829706Y-9135793D01*
X13829706Y-9135793D02*
X13820182Y-9116746D01*
X13820182Y-9116746D02*
X13820182Y-9107222D01*
X13820182Y-9107222D02*
X13829706Y-9088174D01*
X13829706Y-9088174D02*
X13848753Y-9078650D01*
X13848753Y-9078650D02*
X13877325Y-9078650D01*
X13877325Y-9078650D02*
X13896372Y-9088174D01*
X13972563Y-9288174D02*
X13982087Y-9278650D01*
X13982087Y-9278650D02*
X14001134Y-9250079D01*
X14001134Y-9250079D02*
X14010658Y-9231031D01*
X14010658Y-9231031D02*
X14020182Y-9202460D01*
X14020182Y-9202460D02*
X14029706Y-9154841D01*
X14029706Y-9154841D02*
X14029706Y-9116746D01*
X14029706Y-9116746D02*
X14020182Y-9069127D01*
X14020182Y-9069127D02*
X14010658Y-9040555D01*
X14010658Y-9040555D02*
X14001134Y-9021508D01*
X14001134Y-9021508D02*
X13982087Y-8992936D01*
X13982087Y-8992936D02*
X13972563Y-8983412D01*
M02*
