%TF.GenerationSoftware,KiCad,Pcbnew,9.0.5*%
%TF.CreationDate,2026-05-03T01:15:44+05:30*%
%TF.ProjectId,rid,7269642e-6b69-4636-9164-5f7063625858,rev?*%
%TF.SameCoordinates,Original*%
%TF.FileFunction,Legend,Top*%
%TF.FilePolarity,Positive*%
%FSLAX46Y46*%
G04 Gerber Fmt 4.6, Leading zero omitted, Abs format (unit mm)*
G04 Created by KiCad (PCBNEW 9.0.5) date 2026-05-03 01:15:44*
%MOMM*%
%LPD*%
G01*
G04 APERTURE LIST*
%ADD10C,0.312500*%
%ADD11C,0.062500*%
%ADD12C,0.100000*%
%ADD13C,0.125000*%
G04 APERTURE END LIST*
D10*
X123800830Y-77677797D02*
X123800830Y-75177797D01*
X123800830Y-75177797D02*
X124753211Y-75177797D01*
X124753211Y-75177797D02*
X124991306Y-75296845D01*
X124991306Y-75296845D02*
X125110353Y-75415892D01*
X125110353Y-75415892D02*
X125229401Y-75653988D01*
X125229401Y-75653988D02*
X125229401Y-76011130D01*
X125229401Y-76011130D02*
X125110353Y-76249226D01*
X125110353Y-76249226D02*
X124991306Y-76368273D01*
X124991306Y-76368273D02*
X124753211Y-76487321D01*
X124753211Y-76487321D02*
X123800830Y-76487321D01*
X127253211Y-77558750D02*
X127015115Y-77677797D01*
X127015115Y-77677797D02*
X126538925Y-77677797D01*
X126538925Y-77677797D02*
X126300830Y-77558750D01*
X126300830Y-77558750D02*
X126181782Y-77320654D01*
X126181782Y-77320654D02*
X126181782Y-76368273D01*
X126181782Y-76368273D02*
X126300830Y-76130178D01*
X126300830Y-76130178D02*
X126538925Y-76011130D01*
X126538925Y-76011130D02*
X127015115Y-76011130D01*
X127015115Y-76011130D02*
X127253211Y-76130178D01*
X127253211Y-76130178D02*
X127372258Y-76368273D01*
X127372258Y-76368273D02*
X127372258Y-76606369D01*
X127372258Y-76606369D02*
X126181782Y-76844464D01*
X129515115Y-77677797D02*
X129515115Y-76368273D01*
X129515115Y-76368273D02*
X129396068Y-76130178D01*
X129396068Y-76130178D02*
X129157972Y-76011130D01*
X129157972Y-76011130D02*
X128681782Y-76011130D01*
X128681782Y-76011130D02*
X128443687Y-76130178D01*
X129515115Y-77558750D02*
X129277020Y-77677797D01*
X129277020Y-77677797D02*
X128681782Y-77677797D01*
X128681782Y-77677797D02*
X128443687Y-77558750D01*
X128443687Y-77558750D02*
X128324639Y-77320654D01*
X128324639Y-77320654D02*
X128324639Y-77082559D01*
X128324639Y-77082559D02*
X128443687Y-76844464D01*
X128443687Y-76844464D02*
X128681782Y-76725416D01*
X128681782Y-76725416D02*
X129277020Y-76725416D01*
X129277020Y-76725416D02*
X129515115Y-76606369D01*
X130705592Y-77677797D02*
X130705592Y-75177797D01*
X130943687Y-76725416D02*
X131657973Y-77677797D01*
X131657973Y-76011130D02*
X130705592Y-76963511D01*
D11*
X123602226Y-63125548D02*
X124006988Y-63125548D01*
X124006988Y-63125548D02*
X124054607Y-63149358D01*
X124054607Y-63149358D02*
X124078416Y-63173167D01*
X124078416Y-63173167D02*
X124102226Y-63220786D01*
X124102226Y-63220786D02*
X124102226Y-63292215D01*
X124102226Y-63292215D02*
X124078416Y-63339834D01*
X123911750Y-63125548D02*
X123935559Y-63173167D01*
X123935559Y-63173167D02*
X123935559Y-63268405D01*
X123935559Y-63268405D02*
X123911750Y-63316024D01*
X123911750Y-63316024D02*
X123887940Y-63339834D01*
X123887940Y-63339834D02*
X123840321Y-63363643D01*
X123840321Y-63363643D02*
X123697464Y-63363643D01*
X123697464Y-63363643D02*
X123649845Y-63339834D01*
X123649845Y-63339834D02*
X123626035Y-63316024D01*
X123626035Y-63316024D02*
X123602226Y-63268405D01*
X123602226Y-63268405D02*
X123602226Y-63173167D01*
X123602226Y-63173167D02*
X123626035Y-63125548D01*
X123602226Y-62887453D02*
X123935559Y-62887453D01*
X123649845Y-62887453D02*
X123626035Y-62863643D01*
X123626035Y-62863643D02*
X123602226Y-62816024D01*
X123602226Y-62816024D02*
X123602226Y-62744596D01*
X123602226Y-62744596D02*
X123626035Y-62696977D01*
X123626035Y-62696977D02*
X123673654Y-62673167D01*
X123673654Y-62673167D02*
X123935559Y-62673167D01*
X123935559Y-62220786D02*
X123435559Y-62220786D01*
X123911750Y-62220786D02*
X123935559Y-62268405D01*
X123935559Y-62268405D02*
X123935559Y-62363643D01*
X123935559Y-62363643D02*
X123911750Y-62411262D01*
X123911750Y-62411262D02*
X123887940Y-62435072D01*
X123887940Y-62435072D02*
X123840321Y-62458881D01*
X123840321Y-62458881D02*
X123697464Y-62458881D01*
X123697464Y-62458881D02*
X123649845Y-62435072D01*
X123649845Y-62435072D02*
X123626035Y-62411262D01*
X123626035Y-62411262D02*
X123602226Y-62363643D01*
X123602226Y-62363643D02*
X123602226Y-62268405D01*
X123602226Y-62268405D02*
X123626035Y-62220786D01*
D12*
X99684836Y-53100276D02*
X99684836Y-53600276D01*
X99684836Y-53124085D02*
X99732455Y-53100276D01*
X99732455Y-53100276D02*
X99827693Y-53100276D01*
X99827693Y-53100276D02*
X99875312Y-53124085D01*
X99875312Y-53124085D02*
X99899122Y-53147895D01*
X99899122Y-53147895D02*
X99922931Y-53195514D01*
X99922931Y-53195514D02*
X99922931Y-53338371D01*
X99922931Y-53338371D02*
X99899122Y-53385990D01*
X99899122Y-53385990D02*
X99875312Y-53409800D01*
X99875312Y-53409800D02*
X99827693Y-53433609D01*
X99827693Y-53433609D02*
X99732455Y-53433609D01*
X99732455Y-53433609D02*
X99684836Y-53409800D01*
X100375312Y-52933609D02*
X100137217Y-52933609D01*
X100137217Y-52933609D02*
X100113408Y-53171704D01*
X100113408Y-53171704D02*
X100137217Y-53147895D01*
X100137217Y-53147895D02*
X100184836Y-53124085D01*
X100184836Y-53124085D02*
X100303884Y-53124085D01*
X100303884Y-53124085D02*
X100351503Y-53147895D01*
X100351503Y-53147895D02*
X100375312Y-53171704D01*
X100375312Y-53171704D02*
X100399122Y-53219323D01*
X100399122Y-53219323D02*
X100399122Y-53338371D01*
X100399122Y-53338371D02*
X100375312Y-53385990D01*
X100375312Y-53385990D02*
X100351503Y-53409800D01*
X100351503Y-53409800D02*
X100303884Y-53433609D01*
X100303884Y-53433609D02*
X100184836Y-53433609D01*
X100184836Y-53433609D02*
X100137217Y-53409800D01*
X100137217Y-53409800D02*
X100113408Y-53385990D01*
X125184836Y-53100276D02*
X125184836Y-53600276D01*
X125184836Y-53124085D02*
X125232455Y-53100276D01*
X125232455Y-53100276D02*
X125327693Y-53100276D01*
X125327693Y-53100276D02*
X125375312Y-53124085D01*
X125375312Y-53124085D02*
X125399122Y-53147895D01*
X125399122Y-53147895D02*
X125422931Y-53195514D01*
X125422931Y-53195514D02*
X125422931Y-53338371D01*
X125422931Y-53338371D02*
X125399122Y-53385990D01*
X125399122Y-53385990D02*
X125375312Y-53409800D01*
X125375312Y-53409800D02*
X125327693Y-53433609D01*
X125327693Y-53433609D02*
X125232455Y-53433609D01*
X125232455Y-53433609D02*
X125184836Y-53409800D01*
X125899122Y-53433609D02*
X125613408Y-53433609D01*
X125756265Y-53433609D02*
X125756265Y-52933609D01*
X125756265Y-52933609D02*
X125708646Y-53005038D01*
X125708646Y-53005038D02*
X125661027Y-53052657D01*
X125661027Y-53052657D02*
X125613408Y-53076466D01*
D11*
X101102226Y-63125548D02*
X101506988Y-63125548D01*
X101506988Y-63125548D02*
X101554607Y-63149358D01*
X101554607Y-63149358D02*
X101578416Y-63173167D01*
X101578416Y-63173167D02*
X101602226Y-63220786D01*
X101602226Y-63220786D02*
X101602226Y-63292215D01*
X101602226Y-63292215D02*
X101578416Y-63339834D01*
X101411750Y-63125548D02*
X101435559Y-63173167D01*
X101435559Y-63173167D02*
X101435559Y-63268405D01*
X101435559Y-63268405D02*
X101411750Y-63316024D01*
X101411750Y-63316024D02*
X101387940Y-63339834D01*
X101387940Y-63339834D02*
X101340321Y-63363643D01*
X101340321Y-63363643D02*
X101197464Y-63363643D01*
X101197464Y-63363643D02*
X101149845Y-63339834D01*
X101149845Y-63339834D02*
X101126035Y-63316024D01*
X101126035Y-63316024D02*
X101102226Y-63268405D01*
X101102226Y-63268405D02*
X101102226Y-63173167D01*
X101102226Y-63173167D02*
X101126035Y-63125548D01*
X101102226Y-62887453D02*
X101435559Y-62887453D01*
X101149845Y-62887453D02*
X101126035Y-62863643D01*
X101126035Y-62863643D02*
X101102226Y-62816024D01*
X101102226Y-62816024D02*
X101102226Y-62744596D01*
X101102226Y-62744596D02*
X101126035Y-62696977D01*
X101126035Y-62696977D02*
X101173654Y-62673167D01*
X101173654Y-62673167D02*
X101435559Y-62673167D01*
X101435559Y-62220786D02*
X100935559Y-62220786D01*
X101411750Y-62220786D02*
X101435559Y-62268405D01*
X101435559Y-62268405D02*
X101435559Y-62363643D01*
X101435559Y-62363643D02*
X101411750Y-62411262D01*
X101411750Y-62411262D02*
X101387940Y-62435072D01*
X101387940Y-62435072D02*
X101340321Y-62458881D01*
X101340321Y-62458881D02*
X101197464Y-62458881D01*
X101197464Y-62458881D02*
X101149845Y-62435072D01*
X101149845Y-62435072D02*
X101126035Y-62411262D01*
X101126035Y-62411262D02*
X101102226Y-62363643D01*
X101102226Y-62363643D02*
X101102226Y-62268405D01*
X101102226Y-62268405D02*
X101126035Y-62220786D01*
X101102226Y-57887453D02*
X101435559Y-57768405D01*
X101435559Y-57768405D02*
X101102226Y-57649358D01*
X101411750Y-57244596D02*
X101435559Y-57292215D01*
X101435559Y-57292215D02*
X101435559Y-57387453D01*
X101435559Y-57387453D02*
X101411750Y-57435072D01*
X101411750Y-57435072D02*
X101387940Y-57458882D01*
X101387940Y-57458882D02*
X101340321Y-57482691D01*
X101340321Y-57482691D02*
X101197464Y-57482691D01*
X101197464Y-57482691D02*
X101149845Y-57458882D01*
X101149845Y-57458882D02*
X101126035Y-57435072D01*
X101126035Y-57435072D02*
X101102226Y-57387453D01*
X101102226Y-57387453D02*
X101102226Y-57292215D01*
X101102226Y-57292215D02*
X101126035Y-57244596D01*
X101411750Y-56816025D02*
X101435559Y-56863644D01*
X101435559Y-56863644D02*
X101435559Y-56958882D01*
X101435559Y-56958882D02*
X101411750Y-57006501D01*
X101411750Y-57006501D02*
X101387940Y-57030311D01*
X101387940Y-57030311D02*
X101340321Y-57054120D01*
X101340321Y-57054120D02*
X101197464Y-57054120D01*
X101197464Y-57054120D02*
X101149845Y-57030311D01*
X101149845Y-57030311D02*
X101126035Y-57006501D01*
X101126035Y-57006501D02*
X101102226Y-56958882D01*
X101102226Y-56958882D02*
X101102226Y-56863644D01*
X101102226Y-56863644D02*
X101126035Y-56816025D01*
X101435559Y-60339834D02*
X101102226Y-60339834D01*
X100935559Y-60339834D02*
X100959369Y-60363643D01*
X100959369Y-60363643D02*
X100983178Y-60339834D01*
X100983178Y-60339834D02*
X100959369Y-60316024D01*
X100959369Y-60316024D02*
X100935559Y-60339834D01*
X100935559Y-60339834D02*
X100983178Y-60339834D01*
X101102226Y-60101739D02*
X101435559Y-60101739D01*
X101149845Y-60101739D02*
X101126035Y-60077929D01*
X101126035Y-60077929D02*
X101102226Y-60030310D01*
X101102226Y-60030310D02*
X101102226Y-59958882D01*
X101102226Y-59958882D02*
X101126035Y-59911263D01*
X101126035Y-59911263D02*
X101173654Y-59887453D01*
X101173654Y-59887453D02*
X101435559Y-59887453D01*
X123602226Y-55625548D02*
X124006988Y-55625548D01*
X124006988Y-55625548D02*
X124054607Y-55649358D01*
X124054607Y-55649358D02*
X124078416Y-55673167D01*
X124078416Y-55673167D02*
X124102226Y-55720786D01*
X124102226Y-55720786D02*
X124102226Y-55792215D01*
X124102226Y-55792215D02*
X124078416Y-55839834D01*
X123911750Y-55625548D02*
X123935559Y-55673167D01*
X123935559Y-55673167D02*
X123935559Y-55768405D01*
X123935559Y-55768405D02*
X123911750Y-55816024D01*
X123911750Y-55816024D02*
X123887940Y-55839834D01*
X123887940Y-55839834D02*
X123840321Y-55863643D01*
X123840321Y-55863643D02*
X123697464Y-55863643D01*
X123697464Y-55863643D02*
X123649845Y-55839834D01*
X123649845Y-55839834D02*
X123626035Y-55816024D01*
X123626035Y-55816024D02*
X123602226Y-55768405D01*
X123602226Y-55768405D02*
X123602226Y-55673167D01*
X123602226Y-55673167D02*
X123626035Y-55625548D01*
X123602226Y-55387453D02*
X123935559Y-55387453D01*
X123649845Y-55387453D02*
X123626035Y-55363643D01*
X123626035Y-55363643D02*
X123602226Y-55316024D01*
X123602226Y-55316024D02*
X123602226Y-55244596D01*
X123602226Y-55244596D02*
X123626035Y-55196977D01*
X123626035Y-55196977D02*
X123673654Y-55173167D01*
X123673654Y-55173167D02*
X123935559Y-55173167D01*
X123935559Y-54720786D02*
X123435559Y-54720786D01*
X123911750Y-54720786D02*
X123935559Y-54768405D01*
X123935559Y-54768405D02*
X123935559Y-54863643D01*
X123935559Y-54863643D02*
X123911750Y-54911262D01*
X123911750Y-54911262D02*
X123887940Y-54935072D01*
X123887940Y-54935072D02*
X123840321Y-54958881D01*
X123840321Y-54958881D02*
X123697464Y-54958881D01*
X123697464Y-54958881D02*
X123649845Y-54935072D01*
X123649845Y-54935072D02*
X123626035Y-54911262D01*
X123626035Y-54911262D02*
X123602226Y-54863643D01*
X123602226Y-54863643D02*
X123602226Y-54768405D01*
X123602226Y-54768405D02*
X123626035Y-54720786D01*
D12*
X125184836Y-64600276D02*
X125184836Y-65100276D01*
X125184836Y-64624085D02*
X125232455Y-64600276D01*
X125232455Y-64600276D02*
X125327693Y-64600276D01*
X125327693Y-64600276D02*
X125375312Y-64624085D01*
X125375312Y-64624085D02*
X125399122Y-64647895D01*
X125399122Y-64647895D02*
X125422931Y-64695514D01*
X125422931Y-64695514D02*
X125422931Y-64838371D01*
X125422931Y-64838371D02*
X125399122Y-64885990D01*
X125399122Y-64885990D02*
X125375312Y-64909800D01*
X125375312Y-64909800D02*
X125327693Y-64933609D01*
X125327693Y-64933609D02*
X125232455Y-64933609D01*
X125232455Y-64933609D02*
X125184836Y-64909800D01*
X125851503Y-64600276D02*
X125851503Y-64933609D01*
X125732455Y-64409800D02*
X125613408Y-64766942D01*
X125613408Y-64766942D02*
X125922931Y-64766942D01*
D13*
X131290719Y-43977268D02*
X130290719Y-43977268D01*
X130290719Y-43977268D02*
X130290719Y-43596316D01*
X130290719Y-43596316D02*
X130338338Y-43501078D01*
X130338338Y-43501078D02*
X130385957Y-43453459D01*
X130385957Y-43453459D02*
X130481195Y-43405840D01*
X130481195Y-43405840D02*
X130624052Y-43405840D01*
X130624052Y-43405840D02*
X130719290Y-43453459D01*
X130719290Y-43453459D02*
X130766909Y-43501078D01*
X130766909Y-43501078D02*
X130814528Y-43596316D01*
X130814528Y-43596316D02*
X130814528Y-43977268D01*
X131243100Y-42596316D02*
X131290719Y-42691554D01*
X131290719Y-42691554D02*
X131290719Y-42882030D01*
X131290719Y-42882030D02*
X131243100Y-42977268D01*
X131243100Y-42977268D02*
X131147861Y-43024887D01*
X131147861Y-43024887D02*
X130766909Y-43024887D01*
X130766909Y-43024887D02*
X130671671Y-42977268D01*
X130671671Y-42977268D02*
X130624052Y-42882030D01*
X130624052Y-42882030D02*
X130624052Y-42691554D01*
X130624052Y-42691554D02*
X130671671Y-42596316D01*
X130671671Y-42596316D02*
X130766909Y-42548697D01*
X130766909Y-42548697D02*
X130862147Y-42548697D01*
X130862147Y-42548697D02*
X130957385Y-43024887D01*
X131290719Y-41691554D02*
X130766909Y-41691554D01*
X130766909Y-41691554D02*
X130671671Y-41739173D01*
X130671671Y-41739173D02*
X130624052Y-41834411D01*
X130624052Y-41834411D02*
X130624052Y-42024887D01*
X130624052Y-42024887D02*
X130671671Y-42120125D01*
X131243100Y-41691554D02*
X131290719Y-41786792D01*
X131290719Y-41786792D02*
X131290719Y-42024887D01*
X131290719Y-42024887D02*
X131243100Y-42120125D01*
X131243100Y-42120125D02*
X131147861Y-42167744D01*
X131147861Y-42167744D02*
X131052623Y-42167744D01*
X131052623Y-42167744D02*
X130957385Y-42120125D01*
X130957385Y-42120125D02*
X130909766Y-42024887D01*
X130909766Y-42024887D02*
X130909766Y-41786792D01*
X130909766Y-41786792D02*
X130862147Y-41691554D01*
X131290719Y-41215363D02*
X130290719Y-41215363D01*
X130909766Y-41120125D02*
X131290719Y-40834411D01*
X130624052Y-40834411D02*
X131005004Y-41215363D01*
D12*
X99684836Y-64600276D02*
X99684836Y-65100276D01*
X99684836Y-64624085D02*
X99732455Y-64600276D01*
X99732455Y-64600276D02*
X99827693Y-64600276D01*
X99827693Y-64600276D02*
X99875312Y-64624085D01*
X99875312Y-64624085D02*
X99899122Y-64647895D01*
X99899122Y-64647895D02*
X99922931Y-64695514D01*
X99922931Y-64695514D02*
X99922931Y-64838371D01*
X99922931Y-64838371D02*
X99899122Y-64885990D01*
X99899122Y-64885990D02*
X99875312Y-64909800D01*
X99875312Y-64909800D02*
X99827693Y-64933609D01*
X99827693Y-64933609D02*
X99732455Y-64933609D01*
X99732455Y-64933609D02*
X99684836Y-64909800D01*
X100208646Y-64647895D02*
X100161027Y-64624085D01*
X100161027Y-64624085D02*
X100137217Y-64600276D01*
X100137217Y-64600276D02*
X100113408Y-64552657D01*
X100113408Y-64552657D02*
X100113408Y-64528847D01*
X100113408Y-64528847D02*
X100137217Y-64481228D01*
X100137217Y-64481228D02*
X100161027Y-64457419D01*
X100161027Y-64457419D02*
X100208646Y-64433609D01*
X100208646Y-64433609D02*
X100303884Y-64433609D01*
X100303884Y-64433609D02*
X100351503Y-64457419D01*
X100351503Y-64457419D02*
X100375312Y-64481228D01*
X100375312Y-64481228D02*
X100399122Y-64528847D01*
X100399122Y-64528847D02*
X100399122Y-64552657D01*
X100399122Y-64552657D02*
X100375312Y-64600276D01*
X100375312Y-64600276D02*
X100351503Y-64624085D01*
X100351503Y-64624085D02*
X100303884Y-64647895D01*
X100303884Y-64647895D02*
X100208646Y-64647895D01*
X100208646Y-64647895D02*
X100161027Y-64671704D01*
X100161027Y-64671704D02*
X100137217Y-64695514D01*
X100137217Y-64695514D02*
X100113408Y-64743133D01*
X100113408Y-64743133D02*
X100113408Y-64838371D01*
X100113408Y-64838371D02*
X100137217Y-64885990D01*
X100137217Y-64885990D02*
X100161027Y-64909800D01*
X100161027Y-64909800D02*
X100208646Y-64933609D01*
X100208646Y-64933609D02*
X100303884Y-64933609D01*
X100303884Y-64933609D02*
X100351503Y-64909800D01*
X100351503Y-64909800D02*
X100375312Y-64885990D01*
X100375312Y-64885990D02*
X100399122Y-64838371D01*
X100399122Y-64838371D02*
X100399122Y-64743133D01*
X100399122Y-64743133D02*
X100375312Y-64695514D01*
X100375312Y-64695514D02*
X100351503Y-64671704D01*
X100351503Y-64671704D02*
X100303884Y-64647895D01*
M02*
