%TF.GenerationSoftware,KiCad,Pcbnew,9.0.5*%
%TF.CreationDate,2026-05-03T01:14:02+05:30*%
%TF.ProjectId,rid,7269642e-6b69-4636-9164-5f7063625858,rev?*%
%TF.SameCoordinates,Original*%
%TF.FileFunction,Copper,L1,Top*%
%TF.FilePolarity,Positive*%
%FSLAX46Y46*%
G04 Gerber Fmt 4.6, Leading zero omitted, Abs format (unit mm)*
G04 Created by KiCad (PCBNEW 9.0.5) date 2026-05-03 01:14:02*
%MOMM*%
%LPD*%
G01*
G04 APERTURE LIST*
G04 Aperture macros list*
%AMRoundRect*
0 Rectangle with rounded corners*
0 $1 Rounding radius*
0 $2 $3 $4 $5 $6 $7 $8 $9 X,Y pos of 4 corners*
0 Add a 4 corners polygon primitive as box body*
4,1,4,$2,$3,$4,$5,$6,$7,$8,$9,$2,$3,0*
0 Add four circle primitives for the rounded corners*
1,1,$1+$1,$2,$3*
1,1,$1+$1,$4,$5*
1,1,$1+$1,$6,$7*
1,1,$1+$1,$8,$9*
0 Add four rect primitives between the rounded corners*
20,1,$1+$1,$2,$3,$4,$5,0*
20,1,$1+$1,$4,$5,$6,$7,0*
20,1,$1+$1,$6,$7,$8,$9,0*
20,1,$1+$1,$8,$9,$2,$3,0*%
G04 Aperture macros list end*
%TA.AperFunction,SMDPad,CuDef*%
%ADD10RoundRect,0.280000X-3.085000X-0.420000X3.085000X-0.420000X3.085000X0.420000X-3.085000X0.420000X0*%
%TD*%
%TA.AperFunction,ComponentPad*%
%ADD11R,1.700000X1.700000*%
%TD*%
%TA.AperFunction,ComponentPad*%
%ADD12C,1.700000*%
%TD*%
%TA.AperFunction,ViaPad*%
%ADD13C,0.600000*%
%TD*%
%TA.AperFunction,ViaPad*%
%ADD14C,0.800000*%
%TD*%
%TA.AperFunction,Conductor*%
%ADD15C,0.700000*%
%TD*%
%TA.AperFunction,Conductor*%
%ADD16C,0.500000*%
%TD*%
G04 APERTURE END LIST*
D10*
%TO.P,U2,2,VCC*%
%TO.N,VCC*%
X128135000Y-57730000D03*
%TO.P,U2,1,GND*%
%TO.N,GND*%
X128135000Y-55190000D03*
%TO.P,U2,3,OUT*%
%TO.N,unconnected-(U2-OUT-Pad3)*%
X128135000Y-60270000D03*
%TO.P,U2,4,GND*%
%TO.N,GND*%
X128135000Y-62810000D03*
%TO.P,U2,5,GND*%
X96865000Y-55190000D03*
%TO.P,U2,6,VCC*%
%TO.N,VCC*%
X96865000Y-57730000D03*
%TO.P,U2,7,IN*%
%TO.N,Net-(U2-IN)*%
X96865000Y-60270000D03*
%TO.P,U2,8,GND*%
%TO.N,GND*%
X96865000Y-62810000D03*
%TD*%
D11*
%TO.P,BT1,1,+*%
%TO.N,Net-(BT1-+)*%
X113225000Y-76500000D03*
D12*
%TO.P,BT1,2,-*%
%TO.N,GND*%
X115765000Y-76500000D03*
%TD*%
D11*
%TO.P,UPDI_Programmer1,1,Pin_1*%
%TO.N,VCC*%
X126500000Y-41000000D03*
D12*
%TO.P,UPDI_Programmer1,2,Pin_2*%
%TO.N,GND*%
X123960000Y-41000000D03*
%TO.P,UPDI_Programmer1,3,Pin_3*%
%TO.N,Net-(UPDI_Programmer1-Pin_3)*%
X121420000Y-41000000D03*
%TD*%
D13*
%TO.N,GND*%
X95000000Y-42000000D03*
X110000000Y-41500000D03*
X95000000Y-70500000D03*
D14*
X107300000Y-66700000D03*
X120750000Y-61750000D03*
%TO.N,VCC*%
X102500000Y-56500000D03*
X122270000Y-57730000D03*
%TO.N,Net-(U2-IN)*%
X102500000Y-60270000D03*
%TD*%
D15*
%TO.N,VCC*%
X101270000Y-57730000D02*
X98615000Y-57730000D01*
X126385000Y-57730000D02*
X122270000Y-57730000D01*
X102500000Y-56500000D02*
X101270000Y-57730000D01*
D16*
%TO.N,Net-(U2-IN)*%
X102500000Y-60270000D02*
X98615000Y-60270000D01*
%TD*%
%TA.AperFunction,Conductor*%
%TO.N,GND*%
G36*
X131004418Y-39000816D02*
G01*
X131204561Y-39015130D01*
X131222063Y-39017647D01*
X131413797Y-39059355D01*
X131430755Y-39064334D01*
X131614609Y-39132909D01*
X131630701Y-39140259D01*
X131802904Y-39234288D01*
X131817784Y-39243849D01*
X131974867Y-39361441D01*
X131988237Y-39373027D01*
X132126972Y-39511762D01*
X132138558Y-39525132D01*
X132194229Y-39599500D01*
X132256146Y-39682210D01*
X132265711Y-39697095D01*
X132359740Y-39869298D01*
X132367090Y-39885390D01*
X132435662Y-40069236D01*
X132440646Y-40086212D01*
X132482351Y-40277931D01*
X132484869Y-40295442D01*
X132499184Y-40495580D01*
X132499500Y-40504427D01*
X132499500Y-77495572D01*
X132499184Y-77504419D01*
X132484869Y-77704557D01*
X132482351Y-77722068D01*
X132440646Y-77913787D01*
X132435662Y-77930763D01*
X132367090Y-78114609D01*
X132359740Y-78130701D01*
X132265711Y-78302904D01*
X132256146Y-78317789D01*
X132138558Y-78474867D01*
X132126972Y-78488237D01*
X131988237Y-78626972D01*
X131974867Y-78638558D01*
X131817789Y-78756146D01*
X131802904Y-78765711D01*
X131630701Y-78859740D01*
X131614609Y-78867090D01*
X131430763Y-78935662D01*
X131413787Y-78940646D01*
X131222068Y-78982351D01*
X131204557Y-78984869D01*
X131023779Y-78997799D01*
X131004417Y-78999184D01*
X130995572Y-78999500D01*
X94004428Y-78999500D01*
X93995582Y-78999184D01*
X93973622Y-78997613D01*
X93795442Y-78984869D01*
X93777931Y-78982351D01*
X93586212Y-78940646D01*
X93569236Y-78935662D01*
X93385390Y-78867090D01*
X93369298Y-78859740D01*
X93197095Y-78765711D01*
X93182210Y-78756146D01*
X93025132Y-78638558D01*
X93011762Y-78626972D01*
X92873027Y-78488237D01*
X92861441Y-78474867D01*
X92743849Y-78317784D01*
X92734288Y-78302904D01*
X92640259Y-78130701D01*
X92632909Y-78114609D01*
X92572091Y-77951551D01*
X92564334Y-77930755D01*
X92559355Y-77913797D01*
X92517647Y-77722063D01*
X92515130Y-77704556D01*
X92511195Y-77649541D01*
X92500816Y-77504418D01*
X92500500Y-77495572D01*
X92500500Y-77066533D01*
X100824499Y-77066533D01*
X100850458Y-77197030D01*
X100850461Y-77197040D01*
X100901376Y-77319961D01*
X100901386Y-77319979D01*
X100975301Y-77430601D01*
X100975307Y-77430609D01*
X101069390Y-77524692D01*
X101069398Y-77524698D01*
X101180020Y-77598613D01*
X101180023Y-77598614D01*
X101180031Y-77598620D01*
X101180037Y-77598622D01*
X101180038Y-77598623D01*
X101220228Y-77615270D01*
X101302964Y-77649540D01*
X101302968Y-77649540D01*
X101302969Y-77649541D01*
X101433466Y-77675500D01*
X101433469Y-77675500D01*
X101566533Y-77675500D01*
X101671488Y-77654622D01*
X101697036Y-77649540D01*
X101819969Y-77598620D01*
X101930606Y-77524695D01*
X102024695Y-77430606D01*
X102098620Y-77319969D01*
X102149540Y-77197036D01*
X102175500Y-77066533D01*
X103824499Y-77066533D01*
X103850458Y-77197030D01*
X103850461Y-77197040D01*
X103901376Y-77319961D01*
X103901386Y-77319979D01*
X103975301Y-77430601D01*
X103975307Y-77430609D01*
X104069390Y-77524692D01*
X104069398Y-77524698D01*
X104180020Y-77598613D01*
X104180023Y-77598614D01*
X104180031Y-77598620D01*
X104180037Y-77598622D01*
X104180038Y-77598623D01*
X104220228Y-77615270D01*
X104302964Y-77649540D01*
X104302968Y-77649540D01*
X104302969Y-77649541D01*
X104433466Y-77675500D01*
X104433469Y-77675500D01*
X104566533Y-77675500D01*
X104671488Y-77654622D01*
X104697036Y-77649540D01*
X104819969Y-77598620D01*
X104930606Y-77524695D01*
X105024695Y-77430606D01*
X105098620Y-77319969D01*
X105149540Y-77197036D01*
X105175500Y-77066531D01*
X105175500Y-76933469D01*
X105175500Y-76933466D01*
X105149541Y-76802969D01*
X105149540Y-76802968D01*
X105149540Y-76802964D01*
X105098620Y-76680031D01*
X105024695Y-76569394D01*
X105024692Y-76569390D01*
X104930609Y-76475307D01*
X104930601Y-76475301D01*
X104819979Y-76401386D01*
X104819972Y-76401382D01*
X104819969Y-76401380D01*
X104819965Y-76401378D01*
X104819961Y-76401376D01*
X104697040Y-76350461D01*
X104697030Y-76350458D01*
X104566533Y-76324500D01*
X104566531Y-76324500D01*
X104433469Y-76324500D01*
X104433467Y-76324500D01*
X104302969Y-76350458D01*
X104302959Y-76350461D01*
X104180038Y-76401376D01*
X104180020Y-76401386D01*
X104069398Y-76475301D01*
X104069390Y-76475307D01*
X103975307Y-76569390D01*
X103975301Y-76569398D01*
X103901386Y-76680020D01*
X103901376Y-76680038D01*
X103850461Y-76802959D01*
X103850458Y-76802969D01*
X103824500Y-76933466D01*
X103824500Y-76933469D01*
X103824500Y-77066531D01*
X103824500Y-77066533D01*
X103824499Y-77066533D01*
X102175500Y-77066533D01*
X102175500Y-77066531D01*
X102175500Y-76933469D01*
X102175500Y-76933466D01*
X102149541Y-76802969D01*
X102149540Y-76802968D01*
X102149540Y-76802964D01*
X102098620Y-76680031D01*
X102024695Y-76569394D01*
X102024692Y-76569390D01*
X101930609Y-76475307D01*
X101930601Y-76475301D01*
X101819979Y-76401386D01*
X101819972Y-76401382D01*
X101819969Y-76401380D01*
X101819965Y-76401378D01*
X101819961Y-76401376D01*
X101697040Y-76350461D01*
X101697030Y-76350458D01*
X101566533Y-76324500D01*
X101566531Y-76324500D01*
X101433469Y-76324500D01*
X101433467Y-76324500D01*
X101302969Y-76350458D01*
X101302959Y-76350461D01*
X101180038Y-76401376D01*
X101180020Y-76401386D01*
X101069398Y-76475301D01*
X101069390Y-76475307D01*
X100975307Y-76569390D01*
X100975301Y-76569398D01*
X100901386Y-76680020D01*
X100901376Y-76680038D01*
X100850461Y-76802959D01*
X100850458Y-76802969D01*
X100824500Y-76933466D01*
X100824500Y-76933469D01*
X100824500Y-77066531D01*
X100824500Y-77066533D01*
X100824499Y-77066533D01*
X92500500Y-77066533D01*
X92500500Y-75602135D01*
X111874500Y-75602135D01*
X111874500Y-77397870D01*
X111874501Y-77397876D01*
X111880908Y-77457483D01*
X111931202Y-77592328D01*
X111931206Y-77592335D01*
X112017452Y-77707544D01*
X112017455Y-77707547D01*
X112132664Y-77793793D01*
X112132671Y-77793797D01*
X112267517Y-77844091D01*
X112267516Y-77844091D01*
X112274444Y-77844835D01*
X112327127Y-77850500D01*
X114122872Y-77850499D01*
X114182483Y-77844091D01*
X114317331Y-77793796D01*
X114432546Y-77707546D01*
X114518796Y-77592331D01*
X114569091Y-77457483D01*
X114575500Y-77397873D01*
X114575499Y-77373979D01*
X114578330Y-77360963D01*
X114588940Y-77341525D01*
X114595179Y-77320275D01*
X114611803Y-77299643D01*
X114611808Y-77299636D01*
X114611811Y-77299634D01*
X114611818Y-77299626D01*
X115282037Y-76629408D01*
X115299075Y-76692993D01*
X115364901Y-76807007D01*
X115457993Y-76900099D01*
X115572007Y-76965925D01*
X115635590Y-76982962D01*
X115003282Y-77615269D01*
X115003282Y-77615270D01*
X115057449Y-77654624D01*
X115246782Y-77751095D01*
X115448870Y-77816757D01*
X115658754Y-77850000D01*
X115871246Y-77850000D01*
X116081127Y-77816757D01*
X116081130Y-77816757D01*
X116283217Y-77751095D01*
X116472554Y-77654622D01*
X116526716Y-77615270D01*
X116526717Y-77615270D01*
X115894408Y-76982962D01*
X115957993Y-76965925D01*
X116072007Y-76900099D01*
X116165099Y-76807007D01*
X116230925Y-76692993D01*
X116247962Y-76629408D01*
X116880270Y-77261717D01*
X116880270Y-77261716D01*
X116919622Y-77207554D01*
X117016095Y-77018217D01*
X117081757Y-76816130D01*
X117081757Y-76816127D01*
X117115000Y-76606246D01*
X117115000Y-76393753D01*
X117081757Y-76183872D01*
X117081757Y-76183869D01*
X117016095Y-75981782D01*
X116919624Y-75792449D01*
X116880270Y-75738282D01*
X116880269Y-75738282D01*
X116247962Y-76370590D01*
X116230925Y-76307007D01*
X116165099Y-76192993D01*
X116072007Y-76099901D01*
X115957993Y-76034075D01*
X115894409Y-76017037D01*
X116526716Y-75384728D01*
X116472550Y-75345375D01*
X116283217Y-75248904D01*
X116081129Y-75183242D01*
X115871246Y-75150000D01*
X115658754Y-75150000D01*
X115448872Y-75183242D01*
X115448869Y-75183242D01*
X115246782Y-75248904D01*
X115057439Y-75345380D01*
X115003282Y-75384727D01*
X115003282Y-75384728D01*
X115635591Y-76017037D01*
X115572007Y-76034075D01*
X115457993Y-76099901D01*
X115364901Y-76192993D01*
X115299075Y-76307007D01*
X115282037Y-76370591D01*
X114611818Y-75700372D01*
X114578333Y-75639049D01*
X114578330Y-75639036D01*
X114575499Y-75626015D01*
X114575499Y-75602128D01*
X114569091Y-75542517D01*
X114540926Y-75467002D01*
X114518798Y-75407673D01*
X114518793Y-75407664D01*
X114432547Y-75292455D01*
X114432544Y-75292452D01*
X114317335Y-75206206D01*
X114317328Y-75206202D01*
X114182482Y-75155908D01*
X114182483Y-75155908D01*
X114122883Y-75149501D01*
X114122881Y-75149500D01*
X114122873Y-75149500D01*
X114122864Y-75149500D01*
X112327129Y-75149500D01*
X112327123Y-75149501D01*
X112267516Y-75155908D01*
X112132671Y-75206202D01*
X112132664Y-75206206D01*
X112017455Y-75292452D01*
X112017452Y-75292455D01*
X111931206Y-75407664D01*
X111931202Y-75407671D01*
X111880908Y-75542517D01*
X111874501Y-75602116D01*
X111874500Y-75602135D01*
X92500500Y-75602135D01*
X92500500Y-63273814D01*
X93000000Y-63273814D01*
X93014742Y-63404659D01*
X93014745Y-63404672D01*
X93072795Y-63570567D01*
X93166312Y-63719400D01*
X93290599Y-63843687D01*
X93439432Y-63937204D01*
X93605327Y-63995254D01*
X93605340Y-63995257D01*
X93736185Y-64009999D01*
X93736189Y-64010000D01*
X96615000Y-64010000D01*
X97115000Y-64010000D01*
X99993811Y-64010000D01*
X99993814Y-64009999D01*
X100124659Y-63995257D01*
X100124672Y-63995254D01*
X100290567Y-63937204D01*
X100439400Y-63843687D01*
X100563687Y-63719400D01*
X100657204Y-63570567D01*
X100715254Y-63404672D01*
X100715257Y-63404659D01*
X100729999Y-63273814D01*
X124270000Y-63273814D01*
X124284742Y-63404659D01*
X124284745Y-63404672D01*
X124342795Y-63570567D01*
X124436312Y-63719400D01*
X124560599Y-63843687D01*
X124709432Y-63937204D01*
X124875327Y-63995254D01*
X124875340Y-63995257D01*
X125006185Y-64009999D01*
X125006189Y-64010000D01*
X127885000Y-64010000D01*
X128385000Y-64010000D01*
X131263811Y-64010000D01*
X131263814Y-64009999D01*
X131394659Y-63995257D01*
X131394672Y-63995254D01*
X131560567Y-63937204D01*
X131709400Y-63843687D01*
X131833687Y-63719400D01*
X131927204Y-63570567D01*
X131985254Y-63404672D01*
X131985257Y-63404659D01*
X131999999Y-63273814D01*
X132000000Y-63273810D01*
X132000000Y-63060000D01*
X128385000Y-63060000D01*
X128385000Y-64010000D01*
X127885000Y-64010000D01*
X127885000Y-63060000D01*
X124270000Y-63060000D01*
X124270000Y-63273814D01*
X100729999Y-63273814D01*
X100730000Y-63273810D01*
X100730000Y-63060000D01*
X97115000Y-63060000D01*
X97115000Y-64010000D01*
X96615000Y-64010000D01*
X96615000Y-63060000D01*
X93000000Y-63060000D01*
X93000000Y-63273814D01*
X92500500Y-63273814D01*
X92500500Y-57266161D01*
X92999500Y-57266161D01*
X92999500Y-58193838D01*
X93014252Y-58324771D01*
X93072344Y-58490790D01*
X93138385Y-58595893D01*
X93165919Y-58639713D01*
X93290287Y-58764081D01*
X93439211Y-58857656D01*
X93511521Y-58882958D01*
X93568297Y-58923680D01*
X93594044Y-58988633D01*
X93580588Y-59057194D01*
X93532201Y-59107597D01*
X93511523Y-59117040D01*
X93449072Y-59138893D01*
X93439208Y-59142345D01*
X93290286Y-59235919D01*
X93165919Y-59360286D01*
X93072344Y-59509209D01*
X93014252Y-59675228D01*
X92999500Y-59806161D01*
X92999500Y-60733838D01*
X93014252Y-60864771D01*
X93072344Y-61030790D01*
X93095733Y-61068013D01*
X93165919Y-61179713D01*
X93290287Y-61304081D01*
X93439211Y-61397656D01*
X93512277Y-61423222D01*
X93569052Y-61463944D01*
X93594800Y-61528896D01*
X93581344Y-61597458D01*
X93532957Y-61647861D01*
X93512278Y-61657305D01*
X93439431Y-61682795D01*
X93290599Y-61776312D01*
X93166312Y-61900599D01*
X93072795Y-62049432D01*
X93014745Y-62215327D01*
X93014742Y-62215340D01*
X93000000Y-62346185D01*
X93000000Y-62560000D01*
X100730000Y-62560000D01*
X100730000Y-62346189D01*
X100729999Y-62346185D01*
X100715257Y-62215340D01*
X100715254Y-62215327D01*
X100657204Y-62049432D01*
X100563687Y-61900599D01*
X100439400Y-61776312D01*
X100290567Y-61682795D01*
X100217722Y-61657305D01*
X100160946Y-61616583D01*
X100135199Y-61551631D01*
X100148655Y-61483069D01*
X100197043Y-61432666D01*
X100217719Y-61423224D01*
X100290789Y-61397656D01*
X100439713Y-61304081D01*
X100564081Y-61179713D01*
X100627660Y-61078526D01*
X100679993Y-61032237D01*
X100732653Y-61020500D01*
X101964730Y-61020500D01*
X102031769Y-61040185D01*
X102033622Y-61041399D01*
X102073447Y-61068010D01*
X102073450Y-61068011D01*
X102073453Y-61068013D01*
X102237334Y-61135894D01*
X102237336Y-61135894D01*
X102237341Y-61135896D01*
X102411304Y-61170499D01*
X102411307Y-61170500D01*
X102411309Y-61170500D01*
X102588693Y-61170500D01*
X102588694Y-61170499D01*
X102646682Y-61158964D01*
X102762658Y-61135896D01*
X102762661Y-61135894D01*
X102762666Y-61135894D01*
X102926547Y-61068013D01*
X103074035Y-60969464D01*
X103199464Y-60844035D01*
X103298013Y-60696547D01*
X103365894Y-60532666D01*
X103400500Y-60358691D01*
X103400500Y-60181309D01*
X103400500Y-60181306D01*
X103400499Y-60181304D01*
X103365896Y-60007341D01*
X103365893Y-60007332D01*
X103298016Y-59843459D01*
X103298009Y-59843446D01*
X103199464Y-59695965D01*
X103199461Y-59695961D01*
X103074038Y-59570538D01*
X103074034Y-59570535D01*
X102926553Y-59471990D01*
X102926540Y-59471983D01*
X102762667Y-59404106D01*
X102762658Y-59404103D01*
X102588694Y-59369500D01*
X102588691Y-59369500D01*
X102411309Y-59369500D01*
X102411306Y-59369500D01*
X102237341Y-59404103D01*
X102237332Y-59404106D01*
X102073452Y-59471987D01*
X102073447Y-59471989D01*
X102033622Y-59498601D01*
X101966945Y-59519480D01*
X101964730Y-59519500D01*
X100732653Y-59519500D01*
X100665614Y-59499815D01*
X100627660Y-59461473D01*
X100564081Y-59360287D01*
X100439713Y-59235919D01*
X100290790Y-59142344D01*
X100252729Y-59129026D01*
X100218478Y-59117041D01*
X100161703Y-59076320D01*
X100135955Y-59011368D01*
X100149411Y-58942806D01*
X100197798Y-58892403D01*
X100218476Y-58882959D01*
X100290789Y-58857656D01*
X100439713Y-58764081D01*
X100564081Y-58639713D01*
X100564824Y-58638529D01*
X100565503Y-58637928D01*
X100568424Y-58634267D01*
X100569065Y-58634778D01*
X100617156Y-58592238D01*
X100669819Y-58580500D01*
X101353768Y-58580500D01*
X101353769Y-58580499D01*
X101518082Y-58547816D01*
X101565890Y-58528013D01*
X101672863Y-58483704D01*
X101812162Y-58390627D01*
X102561484Y-57641304D01*
X121369500Y-57641304D01*
X121369500Y-57818695D01*
X121404103Y-57992658D01*
X121404106Y-57992667D01*
X121471983Y-58156540D01*
X121471990Y-58156553D01*
X121570535Y-58304034D01*
X121570538Y-58304038D01*
X121695961Y-58429461D01*
X121695965Y-58429464D01*
X121843446Y-58528009D01*
X121843459Y-58528016D01*
X121966363Y-58578923D01*
X122007334Y-58595894D01*
X122007336Y-58595894D01*
X122007341Y-58595896D01*
X122181304Y-58630499D01*
X122181307Y-58630500D01*
X122181309Y-58630500D01*
X122358693Y-58630500D01*
X122358694Y-58630499D01*
X122416682Y-58618964D01*
X122532658Y-58595896D01*
X122532659Y-58595895D01*
X122532666Y-58595894D01*
X122547046Y-58589937D01*
X122594495Y-58580500D01*
X124330181Y-58580500D01*
X124397220Y-58600185D01*
X124431229Y-58634543D01*
X124431576Y-58634267D01*
X124434145Y-58637488D01*
X124435175Y-58638529D01*
X124435919Y-58639713D01*
X124560287Y-58764081D01*
X124709211Y-58857656D01*
X124781521Y-58882958D01*
X124838297Y-58923680D01*
X124864044Y-58988633D01*
X124850588Y-59057194D01*
X124802201Y-59107597D01*
X124781523Y-59117040D01*
X124719072Y-59138893D01*
X124709208Y-59142345D01*
X124560286Y-59235919D01*
X124435919Y-59360286D01*
X124342344Y-59509209D01*
X124284252Y-59675228D01*
X124269500Y-59806161D01*
X124269500Y-60733838D01*
X124284252Y-60864771D01*
X124342344Y-61030790D01*
X124365733Y-61068013D01*
X124435919Y-61179713D01*
X124560287Y-61304081D01*
X124709211Y-61397656D01*
X124782277Y-61423222D01*
X124839052Y-61463944D01*
X124864800Y-61528896D01*
X124851344Y-61597458D01*
X124802957Y-61647861D01*
X124782278Y-61657305D01*
X124709431Y-61682795D01*
X124560599Y-61776312D01*
X124436312Y-61900599D01*
X124342795Y-62049432D01*
X124284745Y-62215327D01*
X124284742Y-62215340D01*
X124270000Y-62346185D01*
X124270000Y-62560000D01*
X132000000Y-62560000D01*
X132000000Y-62346189D01*
X131999999Y-62346185D01*
X131985257Y-62215340D01*
X131985254Y-62215327D01*
X131927204Y-62049432D01*
X131833687Y-61900599D01*
X131709400Y-61776312D01*
X131560567Y-61682795D01*
X131487722Y-61657305D01*
X131430946Y-61616583D01*
X131405199Y-61551631D01*
X131418655Y-61483069D01*
X131467043Y-61432666D01*
X131487719Y-61423224D01*
X131560789Y-61397656D01*
X131709713Y-61304081D01*
X131834081Y-61179713D01*
X131927656Y-61030789D01*
X131985746Y-60864777D01*
X132000500Y-60733834D01*
X132000500Y-59806166D01*
X131985746Y-59675223D01*
X131927656Y-59509211D01*
X131920989Y-59498601D01*
X131834080Y-59360286D01*
X131709713Y-59235919D01*
X131560790Y-59142344D01*
X131522729Y-59129026D01*
X131488478Y-59117041D01*
X131431703Y-59076320D01*
X131405955Y-59011368D01*
X131419411Y-58942806D01*
X131467798Y-58892403D01*
X131488476Y-58882959D01*
X131560789Y-58857656D01*
X131709713Y-58764081D01*
X131834081Y-58639713D01*
X131927656Y-58490789D01*
X131985746Y-58324777D01*
X132000500Y-58193834D01*
X132000500Y-57266166D01*
X131985746Y-57135223D01*
X131927656Y-56969211D01*
X131900848Y-56926547D01*
X131869506Y-56876666D01*
X131834081Y-56820287D01*
X131709713Y-56695919D01*
X131560789Y-56602343D01*
X131560785Y-56602342D01*
X131487722Y-56576776D01*
X131430946Y-56536055D01*
X131405199Y-56471102D01*
X131418655Y-56402540D01*
X131467043Y-56352138D01*
X131487723Y-56342693D01*
X131560570Y-56317203D01*
X131709400Y-56223687D01*
X131833687Y-56099400D01*
X131927204Y-55950567D01*
X131985254Y-55784672D01*
X131985257Y-55784659D01*
X131999999Y-55653814D01*
X132000000Y-55653810D01*
X132000000Y-55440000D01*
X124270000Y-55440000D01*
X124270000Y-55653814D01*
X124284742Y-55784659D01*
X124284745Y-55784672D01*
X124342795Y-55950567D01*
X124436312Y-56099400D01*
X124560599Y-56223687D01*
X124709430Y-56317203D01*
X124782276Y-56342693D01*
X124839052Y-56383415D01*
X124864800Y-56448367D01*
X124851344Y-56516929D01*
X124802957Y-56567332D01*
X124782277Y-56576776D01*
X124709214Y-56602342D01*
X124709210Y-56602343D01*
X124560286Y-56695919D01*
X124435920Y-56820285D01*
X124435919Y-56820287D01*
X124435175Y-56821470D01*
X124434496Y-56822071D01*
X124431576Y-56825733D01*
X124430934Y-56825221D01*
X124382844Y-56867762D01*
X124330181Y-56879500D01*
X122594495Y-56879500D01*
X122547046Y-56870062D01*
X122532666Y-56864106D01*
X122532662Y-56864105D01*
X122532658Y-56864103D01*
X122358694Y-56829500D01*
X122358691Y-56829500D01*
X122181309Y-56829500D01*
X122181306Y-56829500D01*
X122007341Y-56864103D01*
X122007332Y-56864106D01*
X121843459Y-56931983D01*
X121843446Y-56931990D01*
X121695965Y-57030535D01*
X121695961Y-57030538D01*
X121570538Y-57155961D01*
X121570535Y-57155965D01*
X121471990Y-57303446D01*
X121471983Y-57303459D01*
X121404106Y-57467332D01*
X121404103Y-57467341D01*
X121369500Y-57641304D01*
X102561484Y-57641304D01*
X102871941Y-57330846D01*
X102912167Y-57303968D01*
X102926547Y-57298013D01*
X103074035Y-57199464D01*
X103199464Y-57074035D01*
X103298013Y-56926547D01*
X103365894Y-56762666D01*
X103400500Y-56588691D01*
X103400500Y-56411309D01*
X103400500Y-56411306D01*
X103400499Y-56411304D01*
X103365896Y-56237341D01*
X103365893Y-56237332D01*
X103298016Y-56073459D01*
X103298009Y-56073446D01*
X103199464Y-55925965D01*
X103199461Y-55925961D01*
X103074038Y-55800538D01*
X103074034Y-55800535D01*
X102926553Y-55701990D01*
X102926540Y-55701983D01*
X102762667Y-55634106D01*
X102762658Y-55634103D01*
X102588694Y-55599500D01*
X102588691Y-55599500D01*
X102411309Y-55599500D01*
X102411306Y-55599500D01*
X102237341Y-55634103D01*
X102237332Y-55634106D01*
X102073459Y-55701983D01*
X102073446Y-55701990D01*
X101925965Y-55800535D01*
X101925961Y-55800538D01*
X101800538Y-55925961D01*
X101800535Y-55925965D01*
X101701987Y-56073452D01*
X101696029Y-56087836D01*
X101669151Y-56128058D01*
X100954030Y-56843181D01*
X100927102Y-56857884D01*
X100901284Y-56874477D01*
X100895083Y-56875368D01*
X100892707Y-56876666D01*
X100866349Y-56879500D01*
X100669819Y-56879500D01*
X100602780Y-56859815D01*
X100568770Y-56825456D01*
X100568424Y-56825733D01*
X100565854Y-56822511D01*
X100564824Y-56821470D01*
X100564081Y-56820287D01*
X100439713Y-56695919D01*
X100290789Y-56602343D01*
X100290785Y-56602342D01*
X100217722Y-56576776D01*
X100160946Y-56536055D01*
X100135199Y-56471102D01*
X100148655Y-56402540D01*
X100197043Y-56352138D01*
X100217723Y-56342693D01*
X100290570Y-56317203D01*
X100439400Y-56223687D01*
X100563687Y-56099400D01*
X100657204Y-55950567D01*
X100715254Y-55784672D01*
X100715257Y-55784659D01*
X100729999Y-55653814D01*
X100730000Y-55653810D01*
X100730000Y-55440000D01*
X93000000Y-55440000D01*
X93000000Y-55653814D01*
X93014742Y-55784659D01*
X93014745Y-55784672D01*
X93072795Y-55950567D01*
X93166312Y-56099400D01*
X93290599Y-56223687D01*
X93439430Y-56317203D01*
X93512276Y-56342693D01*
X93569052Y-56383415D01*
X93594800Y-56448367D01*
X93581344Y-56516929D01*
X93532957Y-56567332D01*
X93512277Y-56576776D01*
X93439214Y-56602342D01*
X93439210Y-56602343D01*
X93290286Y-56695919D01*
X93165919Y-56820286D01*
X93072344Y-56969209D01*
X93014252Y-57135228D01*
X92999500Y-57266161D01*
X92500500Y-57266161D01*
X92500500Y-54726185D01*
X93000000Y-54726185D01*
X93000000Y-54940000D01*
X96615000Y-54940000D01*
X97115000Y-54940000D01*
X100730000Y-54940000D01*
X100730000Y-54726189D01*
X100729999Y-54726185D01*
X124270000Y-54726185D01*
X124270000Y-54940000D01*
X127885000Y-54940000D01*
X128385000Y-54940000D01*
X132000000Y-54940000D01*
X132000000Y-54726189D01*
X131999999Y-54726185D01*
X131985257Y-54595340D01*
X131985254Y-54595327D01*
X131927204Y-54429432D01*
X131833687Y-54280599D01*
X131709400Y-54156312D01*
X131560567Y-54062795D01*
X131394672Y-54004745D01*
X131394659Y-54004742D01*
X131263814Y-53990000D01*
X128385000Y-53990000D01*
X128385000Y-54940000D01*
X127885000Y-54940000D01*
X127885000Y-53990000D01*
X125006185Y-53990000D01*
X124875340Y-54004742D01*
X124875327Y-54004745D01*
X124709432Y-54062795D01*
X124560599Y-54156312D01*
X124436312Y-54280599D01*
X124342795Y-54429432D01*
X124284745Y-54595327D01*
X124284742Y-54595340D01*
X124270000Y-54726185D01*
X100729999Y-54726185D01*
X100715257Y-54595340D01*
X100715254Y-54595327D01*
X100657204Y-54429432D01*
X100563687Y-54280599D01*
X100439400Y-54156312D01*
X100290567Y-54062795D01*
X100124672Y-54004745D01*
X100124659Y-54004742D01*
X99993814Y-53990000D01*
X97115000Y-53990000D01*
X97115000Y-54940000D01*
X96615000Y-54940000D01*
X96615000Y-53990000D01*
X93736185Y-53990000D01*
X93605340Y-54004742D01*
X93605327Y-54004745D01*
X93439432Y-54062795D01*
X93290599Y-54156312D01*
X93166312Y-54280599D01*
X93072795Y-54429432D01*
X93014745Y-54595327D01*
X93014742Y-54595340D01*
X93000000Y-54726185D01*
X92500500Y-54726185D01*
X92500500Y-40504427D01*
X92500816Y-40495581D01*
X92507082Y-40407970D01*
X92515131Y-40295434D01*
X92517646Y-40277938D01*
X92559356Y-40086199D01*
X92564333Y-40069248D01*
X92614738Y-39934108D01*
X110999500Y-39934108D01*
X110999500Y-40000000D01*
X110999500Y-40136838D01*
X111031421Y-40369087D01*
X111036765Y-40407964D01*
X111036766Y-40407970D01*
X111110602Y-40671493D01*
X111219633Y-40922509D01*
X111361829Y-41156341D01*
X111534542Y-41368634D01*
X111534545Y-41368636D01*
X111534546Y-41368638D01*
X111667887Y-41493170D01*
X111734560Y-41555439D01*
X111958135Y-41713255D01*
X111958141Y-41713259D01*
X111958143Y-41713260D01*
X112201136Y-41839169D01*
X112201139Y-41839170D01*
X112459004Y-41930816D01*
X112459020Y-41930821D01*
X112649255Y-41970351D01*
X112726960Y-41986498D01*
X112726961Y-41986499D01*
X112744441Y-41987694D01*
X113000000Y-42005175D01*
X113273038Y-41986499D01*
X113412676Y-41957482D01*
X113540979Y-41930821D01*
X113540985Y-41930818D01*
X113540990Y-41930818D01*
X113798864Y-41839169D01*
X114041857Y-41713260D01*
X114265442Y-41555437D01*
X114465454Y-41368638D01*
X114638168Y-41156345D01*
X114780365Y-40922511D01*
X114792874Y-40893713D01*
X120069500Y-40893713D01*
X120069500Y-41106287D01*
X120102754Y-41316243D01*
X120119778Y-41368638D01*
X120168444Y-41518414D01*
X120264951Y-41707820D01*
X120389890Y-41879786D01*
X120540213Y-42030109D01*
X120712179Y-42155048D01*
X120712181Y-42155049D01*
X120712184Y-42155051D01*
X120901588Y-42251557D01*
X121103757Y-42317246D01*
X121313713Y-42350500D01*
X121313714Y-42350500D01*
X121526286Y-42350500D01*
X121526287Y-42350500D01*
X121736243Y-42317246D01*
X121938412Y-42251557D01*
X122127816Y-42155051D01*
X122214138Y-42092335D01*
X122299786Y-42030109D01*
X122299788Y-42030106D01*
X122299792Y-42030104D01*
X122450104Y-41879792D01*
X122450106Y-41879788D01*
X122450109Y-41879786D01*
X122517515Y-41787007D01*
X122575051Y-41707816D01*
X122579793Y-41698508D01*
X122627763Y-41647711D01*
X122695583Y-41630911D01*
X122761719Y-41653445D01*
X122800763Y-41698500D01*
X122805373Y-41707547D01*
X122844728Y-41761716D01*
X123477037Y-41129408D01*
X123494075Y-41192993D01*
X123559901Y-41307007D01*
X123652993Y-41400099D01*
X123767007Y-41465925D01*
X123830590Y-41482962D01*
X123198282Y-42115269D01*
X123198282Y-42115270D01*
X123252449Y-42154624D01*
X123441782Y-42251095D01*
X123643870Y-42316757D01*
X123853754Y-42350000D01*
X124066246Y-42350000D01*
X124276127Y-42316757D01*
X124276130Y-42316757D01*
X124478217Y-42251095D01*
X124667554Y-42154622D01*
X124721716Y-42115270D01*
X124721717Y-42115270D01*
X124089408Y-41482962D01*
X124152993Y-41465925D01*
X124267007Y-41400099D01*
X124360099Y-41307007D01*
X124425925Y-41192993D01*
X124442962Y-41129408D01*
X125113181Y-41799628D01*
X125146666Y-41860951D01*
X125149500Y-41887300D01*
X125149500Y-41897865D01*
X125149501Y-41897876D01*
X125155908Y-41957483D01*
X125206202Y-42092328D01*
X125206206Y-42092335D01*
X125292452Y-42207544D01*
X125292455Y-42207547D01*
X125407664Y-42293793D01*
X125407671Y-42293797D01*
X125542517Y-42344091D01*
X125542516Y-42344091D01*
X125549444Y-42344835D01*
X125602127Y-42350500D01*
X127397872Y-42350499D01*
X127457483Y-42344091D01*
X127592331Y-42293796D01*
X127707546Y-42207546D01*
X127793796Y-42092331D01*
X127844091Y-41957483D01*
X127850500Y-41897873D01*
X127850499Y-40102128D01*
X127844091Y-40042517D01*
X127828233Y-40000000D01*
X127793797Y-39907671D01*
X127793793Y-39907664D01*
X127707547Y-39792455D01*
X127707544Y-39792452D01*
X127592335Y-39706206D01*
X127592328Y-39706202D01*
X127457482Y-39655908D01*
X127457483Y-39655908D01*
X127397883Y-39649501D01*
X127397881Y-39649500D01*
X127397873Y-39649500D01*
X127397864Y-39649500D01*
X125602129Y-39649500D01*
X125602123Y-39649501D01*
X125542516Y-39655908D01*
X125407671Y-39706202D01*
X125407664Y-39706206D01*
X125292455Y-39792452D01*
X125292452Y-39792455D01*
X125206206Y-39907664D01*
X125206202Y-39907671D01*
X125155908Y-40042517D01*
X125153036Y-40069236D01*
X125149501Y-40102123D01*
X125149500Y-40102135D01*
X125149500Y-40112690D01*
X125129815Y-40179729D01*
X125113181Y-40200371D01*
X124442962Y-40870590D01*
X124425925Y-40807007D01*
X124360099Y-40692993D01*
X124267007Y-40599901D01*
X124152993Y-40534075D01*
X124089409Y-40517037D01*
X124721716Y-39884728D01*
X124667550Y-39845375D01*
X124478217Y-39748904D01*
X124276129Y-39683242D01*
X124066246Y-39650000D01*
X123853754Y-39650000D01*
X123643872Y-39683242D01*
X123643869Y-39683242D01*
X123441782Y-39748904D01*
X123252439Y-39845380D01*
X123198282Y-39884727D01*
X123198282Y-39884728D01*
X123830591Y-40517037D01*
X123767007Y-40534075D01*
X123652993Y-40599901D01*
X123559901Y-40692993D01*
X123494075Y-40807007D01*
X123477037Y-40870591D01*
X122844728Y-40238282D01*
X122844727Y-40238282D01*
X122805380Y-40292440D01*
X122805376Y-40292446D01*
X122800760Y-40301505D01*
X122752781Y-40352297D01*
X122684959Y-40369087D01*
X122618826Y-40346543D01*
X122579794Y-40301493D01*
X122575051Y-40292184D01*
X122575049Y-40292181D01*
X122575048Y-40292179D01*
X122450109Y-40120213D01*
X122299786Y-39969890D01*
X122127820Y-39844951D01*
X121938414Y-39748444D01*
X121938413Y-39748443D01*
X121938412Y-39748443D01*
X121736243Y-39682754D01*
X121736241Y-39682753D01*
X121736240Y-39682753D01*
X121574957Y-39657208D01*
X121526287Y-39649500D01*
X121313713Y-39649500D01*
X121265042Y-39657208D01*
X121103760Y-39682753D01*
X120901585Y-39748444D01*
X120712179Y-39844951D01*
X120540213Y-39969890D01*
X120389890Y-40120213D01*
X120264951Y-40292179D01*
X120168444Y-40481585D01*
X120102753Y-40683760D01*
X120078096Y-40839439D01*
X120069500Y-40893713D01*
X114792874Y-40893713D01*
X114816449Y-40839439D01*
X114816449Y-40839437D01*
X114884069Y-40683760D01*
X114889398Y-40671492D01*
X114963235Y-40407965D01*
X115000500Y-40136838D01*
X115000500Y-40000000D01*
X115000500Y-39934108D01*
X114966392Y-39806814D01*
X114900500Y-39692686D01*
X114807314Y-39599500D01*
X114750250Y-39566554D01*
X114693187Y-39533608D01*
X114611655Y-39511762D01*
X114565892Y-39499500D01*
X111565892Y-39499500D01*
X111434108Y-39499500D01*
X111306812Y-39533608D01*
X111192686Y-39599500D01*
X111192683Y-39599502D01*
X111099502Y-39692683D01*
X111099500Y-39692686D01*
X111033608Y-39806812D01*
X111006584Y-39907669D01*
X110999500Y-39934108D01*
X92614738Y-39934108D01*
X92632911Y-39885385D01*
X92640259Y-39869298D01*
X92734297Y-39697079D01*
X92743845Y-39682222D01*
X92861448Y-39525123D01*
X92873020Y-39511769D01*
X93011769Y-39373020D01*
X93025123Y-39361448D01*
X93182221Y-39243845D01*
X93197089Y-39234291D01*
X93369298Y-39140258D01*
X93385385Y-39132911D01*
X93569248Y-39064333D01*
X93586199Y-39059356D01*
X93777938Y-39017646D01*
X93795436Y-39015130D01*
X93995582Y-39000816D01*
X94004428Y-39000500D01*
X94065892Y-39000500D01*
X130934108Y-39000500D01*
X130995572Y-39000500D01*
X131004418Y-39000816D01*
G37*
%TD.AperFunction*%
%TD*%
M02*
