%TF.GenerationSoftware,KiCad,Pcbnew,9.0.5*%
%TF.CreationDate,2026-05-03T01:14:02+05:30*%
%TF.ProjectId,rid,7269642e-6b69-4636-9164-5f7063625858,rev?*%
%TF.SameCoordinates,Original*%
%TF.FileFunction,Legend,Bot*%
%TF.FilePolarity,Positive*%
%FSLAX46Y46*%
G04 Gerber Fmt 4.6, Leading zero omitted, Abs format (unit mm)*
G04 Created by KiCad (PCBNEW 9.0.5) date 2026-05-03 01:14:02*
%MOMM*%
%LPD*%
G01*
G04 APERTURE LIST*
%ADD10C,0.062500*%
%ADD11C,0.050000*%
%ADD12C,0.100000*%
%ADD13C,0.300000*%
%ADD14C,0.150000*%
%ADD15C,0.120000*%
G04 APERTURE END LIST*
D10*
X99480040Y-74665053D02*
X99813373Y-74403148D01*
X99813373Y-74665053D02*
X99480040Y-74403148D01*
X117915426Y-76066451D02*
X118320188Y-76066451D01*
X118320188Y-76066451D02*
X118367807Y-76042641D01*
X118367807Y-76042641D02*
X118391616Y-76018832D01*
X118391616Y-76018832D02*
X118415426Y-75971213D01*
X118415426Y-75971213D02*
X118415426Y-75899784D01*
X118415426Y-75899784D02*
X118391616Y-75852165D01*
X118224950Y-76066451D02*
X118248759Y-76018832D01*
X118248759Y-76018832D02*
X118248759Y-75923594D01*
X118248759Y-75923594D02*
X118224950Y-75875975D01*
X118224950Y-75875975D02*
X118201140Y-75852165D01*
X118201140Y-75852165D02*
X118153521Y-75828356D01*
X118153521Y-75828356D02*
X118010664Y-75828356D01*
X118010664Y-75828356D02*
X117963045Y-75852165D01*
X117963045Y-75852165D02*
X117939235Y-75875975D01*
X117939235Y-75875975D02*
X117915426Y-75923594D01*
X117915426Y-75923594D02*
X117915426Y-76018832D01*
X117915426Y-76018832D02*
X117939235Y-76066451D01*
X117915426Y-76304546D02*
X118248759Y-76304546D01*
X117963045Y-76304546D02*
X117939235Y-76328356D01*
X117939235Y-76328356D02*
X117915426Y-76375975D01*
X117915426Y-76375975D02*
X117915426Y-76447403D01*
X117915426Y-76447403D02*
X117939235Y-76495022D01*
X117939235Y-76495022D02*
X117986854Y-76518832D01*
X117986854Y-76518832D02*
X118248759Y-76518832D01*
X118248759Y-76971213D02*
X117748759Y-76971213D01*
X118224950Y-76971213D02*
X118248759Y-76923594D01*
X118248759Y-76923594D02*
X118248759Y-76828356D01*
X118248759Y-76828356D02*
X118224950Y-76780737D01*
X118224950Y-76780737D02*
X118201140Y-76756927D01*
X118201140Y-76756927D02*
X118153521Y-76733118D01*
X118153521Y-76733118D02*
X118010664Y-76733118D01*
X118010664Y-76733118D02*
X117963045Y-76756927D01*
X117963045Y-76756927D02*
X117939235Y-76780737D01*
X117939235Y-76780737D02*
X117915426Y-76828356D01*
X117915426Y-76828356D02*
X117915426Y-76923594D01*
X117915426Y-76923594D02*
X117939235Y-76971213D01*
X110976454Y-76374432D02*
X111000264Y-76445860D01*
X111000264Y-76445860D02*
X111024073Y-76469670D01*
X111024073Y-76469670D02*
X111071692Y-76493479D01*
X111071692Y-76493479D02*
X111143121Y-76493479D01*
X111143121Y-76493479D02*
X111190740Y-76469670D01*
X111190740Y-76469670D02*
X111214550Y-76445860D01*
X111214550Y-76445860D02*
X111238359Y-76398241D01*
X111238359Y-76398241D02*
X111238359Y-76207765D01*
X111238359Y-76207765D02*
X110738359Y-76207765D01*
X110738359Y-76207765D02*
X110738359Y-76374432D01*
X110738359Y-76374432D02*
X110762169Y-76422051D01*
X110762169Y-76422051D02*
X110785978Y-76445860D01*
X110785978Y-76445860D02*
X110833597Y-76469670D01*
X110833597Y-76469670D02*
X110881216Y-76469670D01*
X110881216Y-76469670D02*
X110928835Y-76445860D01*
X110928835Y-76445860D02*
X110952645Y-76422051D01*
X110952645Y-76422051D02*
X110976454Y-76374432D01*
X110976454Y-76374432D02*
X110976454Y-76207765D01*
X111047883Y-76707765D02*
X111047883Y-77088718D01*
X111238359Y-76898241D02*
X110857407Y-76898241D01*
X128518359Y-40627137D02*
X129018359Y-40793803D01*
X129018359Y-40793803D02*
X128518359Y-40960470D01*
X128994550Y-41341422D02*
X129018359Y-41293803D01*
X129018359Y-41293803D02*
X129018359Y-41198565D01*
X129018359Y-41198565D02*
X128994550Y-41150946D01*
X128994550Y-41150946D02*
X128970740Y-41127136D01*
X128970740Y-41127136D02*
X128923121Y-41103327D01*
X128923121Y-41103327D02*
X128780264Y-41103327D01*
X128780264Y-41103327D02*
X128732645Y-41127136D01*
X128732645Y-41127136D02*
X128708835Y-41150946D01*
X128708835Y-41150946D02*
X128685026Y-41198565D01*
X128685026Y-41198565D02*
X128685026Y-41293803D01*
X128685026Y-41293803D02*
X128708835Y-41341422D01*
X128994550Y-41769993D02*
X129018359Y-41722374D01*
X129018359Y-41722374D02*
X129018359Y-41627136D01*
X129018359Y-41627136D02*
X128994550Y-41579517D01*
X128994550Y-41579517D02*
X128970740Y-41555707D01*
X128970740Y-41555707D02*
X128923121Y-41531898D01*
X128923121Y-41531898D02*
X128780264Y-41531898D01*
X128780264Y-41531898D02*
X128732645Y-41555707D01*
X128732645Y-41555707D02*
X128708835Y-41579517D01*
X128708835Y-41579517D02*
X128685026Y-41627136D01*
X128685026Y-41627136D02*
X128685026Y-41722374D01*
X128685026Y-41722374D02*
X128708835Y-41769993D01*
X119366359Y-40749365D02*
X118866359Y-40749365D01*
X118866359Y-40749365D02*
X118866359Y-40868413D01*
X118866359Y-40868413D02*
X118890169Y-40939841D01*
X118890169Y-40939841D02*
X118937788Y-40987460D01*
X118937788Y-40987460D02*
X118985407Y-41011270D01*
X118985407Y-41011270D02*
X119080645Y-41035079D01*
X119080645Y-41035079D02*
X119152073Y-41035079D01*
X119152073Y-41035079D02*
X119247311Y-41011270D01*
X119247311Y-41011270D02*
X119294930Y-40987460D01*
X119294930Y-40987460D02*
X119342550Y-40939841D01*
X119342550Y-40939841D02*
X119366359Y-40868413D01*
X119366359Y-40868413D02*
X119366359Y-40749365D01*
X119366359Y-41249365D02*
X119033026Y-41249365D01*
X118866359Y-41249365D02*
X118890169Y-41225556D01*
X118890169Y-41225556D02*
X118913978Y-41249365D01*
X118913978Y-41249365D02*
X118890169Y-41273175D01*
X118890169Y-41273175D02*
X118866359Y-41249365D01*
X118866359Y-41249365D02*
X118913978Y-41249365D01*
X119033026Y-41487460D02*
X119366359Y-41487460D01*
X119080645Y-41487460D02*
X119056835Y-41511270D01*
X119056835Y-41511270D02*
X119033026Y-41558889D01*
X119033026Y-41558889D02*
X119033026Y-41630317D01*
X119033026Y-41630317D02*
X119056835Y-41677936D01*
X119056835Y-41677936D02*
X119104454Y-41701746D01*
X119104454Y-41701746D02*
X119366359Y-41701746D01*
X111435559Y-53660165D02*
X110935559Y-53660165D01*
X111126035Y-53660165D02*
X111102226Y-53707784D01*
X111102226Y-53707784D02*
X111102226Y-53803022D01*
X111102226Y-53803022D02*
X111126035Y-53850641D01*
X111126035Y-53850641D02*
X111149845Y-53874451D01*
X111149845Y-53874451D02*
X111197464Y-53898260D01*
X111197464Y-53898260D02*
X111340321Y-53898260D01*
X111340321Y-53898260D02*
X111387940Y-53874451D01*
X111387940Y-53874451D02*
X111411750Y-53850641D01*
X111411750Y-53850641D02*
X111435559Y-53803022D01*
X111435559Y-53803022D02*
X111435559Y-53707784D01*
X111435559Y-53707784D02*
X111411750Y-53660165D01*
X111102226Y-54041118D02*
X111102226Y-54231594D01*
X110935559Y-54112546D02*
X111364130Y-54112546D01*
X111364130Y-54112546D02*
X111411750Y-54136356D01*
X111411750Y-54136356D02*
X111435559Y-54183975D01*
X111435559Y-54183975D02*
X111435559Y-54231594D01*
X111102226Y-54398260D02*
X111435559Y-54398260D01*
X111149845Y-54398260D02*
X111126035Y-54422070D01*
X111126035Y-54422070D02*
X111102226Y-54469689D01*
X111102226Y-54469689D02*
X111102226Y-54541117D01*
X111102226Y-54541117D02*
X111126035Y-54588736D01*
X111126035Y-54588736D02*
X111173654Y-54612546D01*
X111173654Y-54612546D02*
X111435559Y-54612546D01*
X120339834Y-53602226D02*
X120339834Y-54102226D01*
X120339834Y-53626035D02*
X120292215Y-53602226D01*
X120292215Y-53602226D02*
X120196977Y-53602226D01*
X120196977Y-53602226D02*
X120149358Y-53626035D01*
X120149358Y-53626035D02*
X120125548Y-53649845D01*
X120125548Y-53649845D02*
X120101739Y-53697464D01*
X120101739Y-53697464D02*
X120101739Y-53840321D01*
X120101739Y-53840321D02*
X120125548Y-53887940D01*
X120125548Y-53887940D02*
X120149358Y-53911750D01*
X120149358Y-53911750D02*
X120196977Y-53935559D01*
X120196977Y-53935559D02*
X120292215Y-53935559D01*
X120292215Y-53935559D02*
X120339834Y-53911750D01*
X119816024Y-53649845D02*
X119863643Y-53626035D01*
X119863643Y-53626035D02*
X119887453Y-53602226D01*
X119887453Y-53602226D02*
X119911262Y-53554607D01*
X119911262Y-53554607D02*
X119911262Y-53530797D01*
X119911262Y-53530797D02*
X119887453Y-53483178D01*
X119887453Y-53483178D02*
X119863643Y-53459369D01*
X119863643Y-53459369D02*
X119816024Y-53435559D01*
X119816024Y-53435559D02*
X119720786Y-53435559D01*
X119720786Y-53435559D02*
X119673167Y-53459369D01*
X119673167Y-53459369D02*
X119649358Y-53483178D01*
X119649358Y-53483178D02*
X119625548Y-53530797D01*
X119625548Y-53530797D02*
X119625548Y-53554607D01*
X119625548Y-53554607D02*
X119649358Y-53602226D01*
X119649358Y-53602226D02*
X119673167Y-53626035D01*
X119673167Y-53626035D02*
X119720786Y-53649845D01*
X119720786Y-53649845D02*
X119816024Y-53649845D01*
X119816024Y-53649845D02*
X119863643Y-53673654D01*
X119863643Y-53673654D02*
X119887453Y-53697464D01*
X119887453Y-53697464D02*
X119911262Y-53745083D01*
X119911262Y-53745083D02*
X119911262Y-53840321D01*
X119911262Y-53840321D02*
X119887453Y-53887940D01*
X119887453Y-53887940D02*
X119863643Y-53911750D01*
X119863643Y-53911750D02*
X119816024Y-53935559D01*
X119816024Y-53935559D02*
X119720786Y-53935559D01*
X119720786Y-53935559D02*
X119673167Y-53911750D01*
X119673167Y-53911750D02*
X119649358Y-53887940D01*
X119649358Y-53887940D02*
X119625548Y-53840321D01*
X119625548Y-53840321D02*
X119625548Y-53745083D01*
X119625548Y-53745083D02*
X119649358Y-53697464D01*
X119649358Y-53697464D02*
X119673167Y-53673654D01*
X119673167Y-53673654D02*
X119720786Y-53649845D01*
X106435559Y-66422070D02*
X106435559Y-66136356D01*
X106435559Y-66279213D02*
X105935559Y-66279213D01*
X105935559Y-66279213D02*
X106006988Y-66231594D01*
X106006988Y-66231594D02*
X106054607Y-66183975D01*
X106054607Y-66183975D02*
X106078416Y-66136356D01*
X106102226Y-66850641D02*
X106435559Y-66850641D01*
X106102226Y-66636355D02*
X106364130Y-66636355D01*
X106364130Y-66636355D02*
X106411750Y-66660165D01*
X106411750Y-66660165D02*
X106435559Y-66707784D01*
X106435559Y-66707784D02*
X106435559Y-66779212D01*
X106435559Y-66779212D02*
X106411750Y-66826831D01*
X106411750Y-66826831D02*
X106387940Y-66850641D01*
X110435559Y-66422070D02*
X110435559Y-66136356D01*
X110435559Y-66279213D02*
X109935559Y-66279213D01*
X109935559Y-66279213D02*
X110006988Y-66231594D01*
X110006988Y-66231594D02*
X110054607Y-66183975D01*
X110054607Y-66183975D02*
X110078416Y-66136356D01*
X109935559Y-66731593D02*
X109935559Y-66779212D01*
X109935559Y-66779212D02*
X109959369Y-66826831D01*
X109959369Y-66826831D02*
X109983178Y-66850641D01*
X109983178Y-66850641D02*
X110030797Y-66874450D01*
X110030797Y-66874450D02*
X110126035Y-66898260D01*
X110126035Y-66898260D02*
X110245083Y-66898260D01*
X110245083Y-66898260D02*
X110340321Y-66874450D01*
X110340321Y-66874450D02*
X110387940Y-66850641D01*
X110387940Y-66850641D02*
X110411750Y-66826831D01*
X110411750Y-66826831D02*
X110435559Y-66779212D01*
X110435559Y-66779212D02*
X110435559Y-66731593D01*
X110435559Y-66731593D02*
X110411750Y-66683974D01*
X110411750Y-66683974D02*
X110387940Y-66660165D01*
X110387940Y-66660165D02*
X110340321Y-66636355D01*
X110340321Y-66636355D02*
X110245083Y-66612546D01*
X110245083Y-66612546D02*
X110126035Y-66612546D01*
X110126035Y-66612546D02*
X110030797Y-66636355D01*
X110030797Y-66636355D02*
X109983178Y-66660165D01*
X109983178Y-66660165D02*
X109959369Y-66683974D01*
X109959369Y-66683974D02*
X109935559Y-66731593D01*
X110102226Y-67326831D02*
X110435559Y-67326831D01*
X110102226Y-67112545D02*
X110364130Y-67112545D01*
X110364130Y-67112545D02*
X110411750Y-67136355D01*
X110411750Y-67136355D02*
X110435559Y-67183974D01*
X110435559Y-67183974D02*
X110435559Y-67255402D01*
X110435559Y-67255402D02*
X110411750Y-67303021D01*
X110411750Y-67303021D02*
X110387940Y-67326831D01*
D11*
X119681780Y-56299560D02*
X119948447Y-56299560D01*
X119681780Y-56128132D02*
X119891304Y-56128132D01*
X119891304Y-56128132D02*
X119929400Y-56147179D01*
X119929400Y-56147179D02*
X119948447Y-56185274D01*
X119948447Y-56185274D02*
X119948447Y-56242417D01*
X119948447Y-56242417D02*
X119929400Y-56280513D01*
X119929400Y-56280513D02*
X119910352Y-56299560D01*
X119681780Y-56490037D02*
X120081780Y-56490037D01*
X119700828Y-56490037D02*
X119681780Y-56528132D01*
X119681780Y-56528132D02*
X119681780Y-56604322D01*
X119681780Y-56604322D02*
X119700828Y-56642418D01*
X119700828Y-56642418D02*
X119719876Y-56661465D01*
X119719876Y-56661465D02*
X119757971Y-56680513D01*
X119757971Y-56680513D02*
X119872257Y-56680513D01*
X119872257Y-56680513D02*
X119910352Y-56661465D01*
X119910352Y-56661465D02*
X119929400Y-56642418D01*
X119929400Y-56642418D02*
X119948447Y-56604322D01*
X119948447Y-56604322D02*
X119948447Y-56528132D01*
X119948447Y-56528132D02*
X119929400Y-56490037D01*
X119948447Y-57023370D02*
X119548447Y-57023370D01*
X119929400Y-57023370D02*
X119948447Y-56985275D01*
X119948447Y-56985275D02*
X119948447Y-56909084D01*
X119948447Y-56909084D02*
X119929400Y-56870989D01*
X119929400Y-56870989D02*
X119910352Y-56851942D01*
X119910352Y-56851942D02*
X119872257Y-56832894D01*
X119872257Y-56832894D02*
X119757971Y-56832894D01*
X119757971Y-56832894D02*
X119719876Y-56851942D01*
X119719876Y-56851942D02*
X119700828Y-56870989D01*
X119700828Y-56870989D02*
X119681780Y-56909084D01*
X119681780Y-56909084D02*
X119681780Y-56985275D01*
X119681780Y-56985275D02*
X119700828Y-57023370D01*
X119948447Y-57213847D02*
X119681780Y-57213847D01*
X119548447Y-57213847D02*
X119567495Y-57194799D01*
X119567495Y-57194799D02*
X119586542Y-57213847D01*
X119586542Y-57213847D02*
X119567495Y-57232894D01*
X119567495Y-57232894D02*
X119548447Y-57213847D01*
X119548447Y-57213847D02*
X119586542Y-57213847D01*
D10*
X96339834Y-45435559D02*
X96339834Y-44935559D01*
X96339834Y-45126035D02*
X96292215Y-45102226D01*
X96292215Y-45102226D02*
X96196977Y-45102226D01*
X96196977Y-45102226D02*
X96149358Y-45126035D01*
X96149358Y-45126035D02*
X96125548Y-45149845D01*
X96125548Y-45149845D02*
X96101739Y-45197464D01*
X96101739Y-45197464D02*
X96101739Y-45340321D01*
X96101739Y-45340321D02*
X96125548Y-45387940D01*
X96125548Y-45387940D02*
X96149358Y-45411750D01*
X96149358Y-45411750D02*
X96196977Y-45435559D01*
X96196977Y-45435559D02*
X96292215Y-45435559D01*
X96292215Y-45435559D02*
X96339834Y-45411750D01*
X95958881Y-45102226D02*
X95768405Y-45102226D01*
X95887453Y-44935559D02*
X95887453Y-45364130D01*
X95887453Y-45364130D02*
X95863643Y-45411750D01*
X95863643Y-45411750D02*
X95816024Y-45435559D01*
X95816024Y-45435559D02*
X95768405Y-45435559D01*
X95601739Y-45102226D02*
X95601739Y-45435559D01*
X95601739Y-45149845D02*
X95577929Y-45126035D01*
X95577929Y-45126035D02*
X95530310Y-45102226D01*
X95530310Y-45102226D02*
X95458882Y-45102226D01*
X95458882Y-45102226D02*
X95411263Y-45126035D01*
X95411263Y-45126035D02*
X95387453Y-45173654D01*
X95387453Y-45173654D02*
X95387453Y-45435559D01*
X95268406Y-45483178D02*
X94887453Y-45483178D01*
X94839834Y-45102226D02*
X94649358Y-45102226D01*
X94768406Y-45435559D02*
X94768406Y-45006988D01*
X94768406Y-45006988D02*
X94744596Y-44959369D01*
X94744596Y-44959369D02*
X94696977Y-44935559D01*
X94696977Y-44935559D02*
X94649358Y-44935559D01*
X94411263Y-45435559D02*
X94458882Y-45411750D01*
X94458882Y-45411750D02*
X94482692Y-45364130D01*
X94482692Y-45364130D02*
X94482692Y-44935559D01*
X94006501Y-45435559D02*
X94006501Y-45173654D01*
X94006501Y-45173654D02*
X94030311Y-45126035D01*
X94030311Y-45126035D02*
X94077930Y-45102226D01*
X94077930Y-45102226D02*
X94173168Y-45102226D01*
X94173168Y-45102226D02*
X94220787Y-45126035D01*
X94006501Y-45411750D02*
X94054120Y-45435559D01*
X94054120Y-45435559D02*
X94173168Y-45435559D01*
X94173168Y-45435559D02*
X94220787Y-45411750D01*
X94220787Y-45411750D02*
X94244596Y-45364130D01*
X94244596Y-45364130D02*
X94244596Y-45316511D01*
X94244596Y-45316511D02*
X94220787Y-45268892D01*
X94220787Y-45268892D02*
X94173168Y-45245083D01*
X94173168Y-45245083D02*
X94054120Y-45245083D01*
X94054120Y-45245083D02*
X94006501Y-45221273D01*
X93554120Y-45102226D02*
X93554120Y-45506988D01*
X93554120Y-45506988D02*
X93577930Y-45554607D01*
X93577930Y-45554607D02*
X93601739Y-45578416D01*
X93601739Y-45578416D02*
X93649358Y-45602226D01*
X93649358Y-45602226D02*
X93720787Y-45602226D01*
X93720787Y-45602226D02*
X93768406Y-45578416D01*
X93554120Y-45411750D02*
X93601739Y-45435559D01*
X93601739Y-45435559D02*
X93696977Y-45435559D01*
X93696977Y-45435559D02*
X93744596Y-45411750D01*
X93744596Y-45411750D02*
X93768406Y-45387940D01*
X93768406Y-45387940D02*
X93792215Y-45340321D01*
X93792215Y-45340321D02*
X93792215Y-45197464D01*
X93792215Y-45197464D02*
X93768406Y-45149845D01*
X93768406Y-45149845D02*
X93744596Y-45126035D01*
X93744596Y-45126035D02*
X93696977Y-45102226D01*
X93696977Y-45102226D02*
X93601739Y-45102226D01*
X93601739Y-45102226D02*
X93554120Y-45126035D01*
X112339834Y-45435559D02*
X112339834Y-44935559D01*
X112339834Y-45126035D02*
X112292215Y-45102226D01*
X112292215Y-45102226D02*
X112196977Y-45102226D01*
X112196977Y-45102226D02*
X112149358Y-45126035D01*
X112149358Y-45126035D02*
X112125548Y-45149845D01*
X112125548Y-45149845D02*
X112101739Y-45197464D01*
X112101739Y-45197464D02*
X112101739Y-45340321D01*
X112101739Y-45340321D02*
X112125548Y-45387940D01*
X112125548Y-45387940D02*
X112149358Y-45411750D01*
X112149358Y-45411750D02*
X112196977Y-45435559D01*
X112196977Y-45435559D02*
X112292215Y-45435559D01*
X112292215Y-45435559D02*
X112339834Y-45411750D01*
X111958881Y-45102226D02*
X111768405Y-45102226D01*
X111887453Y-44935559D02*
X111887453Y-45364130D01*
X111887453Y-45364130D02*
X111863643Y-45411750D01*
X111863643Y-45411750D02*
X111816024Y-45435559D01*
X111816024Y-45435559D02*
X111768405Y-45435559D01*
X111601739Y-45102226D02*
X111601739Y-45435559D01*
X111601739Y-45149845D02*
X111577929Y-45126035D01*
X111577929Y-45126035D02*
X111530310Y-45102226D01*
X111530310Y-45102226D02*
X111458882Y-45102226D01*
X111458882Y-45102226D02*
X111411263Y-45126035D01*
X111411263Y-45126035D02*
X111387453Y-45173654D01*
X111387453Y-45173654D02*
X111387453Y-45435559D01*
X111268406Y-45483178D02*
X110887453Y-45483178D01*
X110839834Y-45102226D02*
X110649358Y-45102226D01*
X110768406Y-45435559D02*
X110768406Y-45006988D01*
X110768406Y-45006988D02*
X110744596Y-44959369D01*
X110744596Y-44959369D02*
X110696977Y-44935559D01*
X110696977Y-44935559D02*
X110649358Y-44935559D01*
X110411263Y-45435559D02*
X110458882Y-45411750D01*
X110458882Y-45411750D02*
X110482692Y-45364130D01*
X110482692Y-45364130D02*
X110482692Y-44935559D01*
X110006501Y-45435559D02*
X110006501Y-45173654D01*
X110006501Y-45173654D02*
X110030311Y-45126035D01*
X110030311Y-45126035D02*
X110077930Y-45102226D01*
X110077930Y-45102226D02*
X110173168Y-45102226D01*
X110173168Y-45102226D02*
X110220787Y-45126035D01*
X110006501Y-45411750D02*
X110054120Y-45435559D01*
X110054120Y-45435559D02*
X110173168Y-45435559D01*
X110173168Y-45435559D02*
X110220787Y-45411750D01*
X110220787Y-45411750D02*
X110244596Y-45364130D01*
X110244596Y-45364130D02*
X110244596Y-45316511D01*
X110244596Y-45316511D02*
X110220787Y-45268892D01*
X110220787Y-45268892D02*
X110173168Y-45245083D01*
X110173168Y-45245083D02*
X110054120Y-45245083D01*
X110054120Y-45245083D02*
X110006501Y-45221273D01*
X109554120Y-45102226D02*
X109554120Y-45506988D01*
X109554120Y-45506988D02*
X109577930Y-45554607D01*
X109577930Y-45554607D02*
X109601739Y-45578416D01*
X109601739Y-45578416D02*
X109649358Y-45602226D01*
X109649358Y-45602226D02*
X109720787Y-45602226D01*
X109720787Y-45602226D02*
X109768406Y-45578416D01*
X109554120Y-45411750D02*
X109601739Y-45435559D01*
X109601739Y-45435559D02*
X109696977Y-45435559D01*
X109696977Y-45435559D02*
X109744596Y-45411750D01*
X109744596Y-45411750D02*
X109768406Y-45387940D01*
X109768406Y-45387940D02*
X109792215Y-45340321D01*
X109792215Y-45340321D02*
X109792215Y-45197464D01*
X109792215Y-45197464D02*
X109768406Y-45149845D01*
X109768406Y-45149845D02*
X109744596Y-45126035D01*
X109744596Y-45126035D02*
X109696977Y-45102226D01*
X109696977Y-45102226D02*
X109601739Y-45102226D01*
X109601739Y-45102226D02*
X109554120Y-45126035D01*
D12*
X128196115Y-43372419D02*
X128196115Y-44181942D01*
X128196115Y-44181942D02*
X128148496Y-44277180D01*
X128148496Y-44277180D02*
X128100877Y-44324800D01*
X128100877Y-44324800D02*
X128005639Y-44372419D01*
X128005639Y-44372419D02*
X127815163Y-44372419D01*
X127815163Y-44372419D02*
X127719925Y-44324800D01*
X127719925Y-44324800D02*
X127672306Y-44277180D01*
X127672306Y-44277180D02*
X127624687Y-44181942D01*
X127624687Y-44181942D02*
X127624687Y-43372419D01*
X127148496Y-44372419D02*
X127148496Y-43372419D01*
X127148496Y-43372419D02*
X126767544Y-43372419D01*
X126767544Y-43372419D02*
X126672306Y-43420038D01*
X126672306Y-43420038D02*
X126624687Y-43467657D01*
X126624687Y-43467657D02*
X126577068Y-43562895D01*
X126577068Y-43562895D02*
X126577068Y-43705752D01*
X126577068Y-43705752D02*
X126624687Y-43800990D01*
X126624687Y-43800990D02*
X126672306Y-43848609D01*
X126672306Y-43848609D02*
X126767544Y-43896228D01*
X126767544Y-43896228D02*
X127148496Y-43896228D01*
X126148496Y-44372419D02*
X126148496Y-43372419D01*
X126148496Y-43372419D02*
X125910401Y-43372419D01*
X125910401Y-43372419D02*
X125767544Y-43420038D01*
X125767544Y-43420038D02*
X125672306Y-43515276D01*
X125672306Y-43515276D02*
X125624687Y-43610514D01*
X125624687Y-43610514D02*
X125577068Y-43800990D01*
X125577068Y-43800990D02*
X125577068Y-43943847D01*
X125577068Y-43943847D02*
X125624687Y-44134323D01*
X125624687Y-44134323D02*
X125672306Y-44229561D01*
X125672306Y-44229561D02*
X125767544Y-44324800D01*
X125767544Y-44324800D02*
X125910401Y-44372419D01*
X125910401Y-44372419D02*
X126148496Y-44372419D01*
X125148496Y-44372419D02*
X125148496Y-43372419D01*
D10*
X113339834Y-63102226D02*
X113339834Y-63602226D01*
X113339834Y-63126035D02*
X113292215Y-63102226D01*
X113292215Y-63102226D02*
X113196977Y-63102226D01*
X113196977Y-63102226D02*
X113149358Y-63126035D01*
X113149358Y-63126035D02*
X113125548Y-63149845D01*
X113125548Y-63149845D02*
X113101739Y-63197464D01*
X113101739Y-63197464D02*
X113101739Y-63340321D01*
X113101739Y-63340321D02*
X113125548Y-63387940D01*
X113125548Y-63387940D02*
X113149358Y-63411750D01*
X113149358Y-63411750D02*
X113196977Y-63435559D01*
X113196977Y-63435559D02*
X113292215Y-63435559D01*
X113292215Y-63435559D02*
X113339834Y-63411750D01*
X112625548Y-63435559D02*
X112911262Y-63435559D01*
X112768405Y-63435559D02*
X112768405Y-62935559D01*
X112768405Y-62935559D02*
X112816024Y-63006988D01*
X112816024Y-63006988D02*
X112863643Y-63054607D01*
X112863643Y-63054607D02*
X112911262Y-63078416D01*
D13*
X129374060Y-72868923D02*
X129016917Y-72987971D01*
X129016917Y-72987971D02*
X128897870Y-73107019D01*
X128897870Y-73107019D02*
X128778822Y-73345114D01*
X128778822Y-73345114D02*
X128778822Y-73702257D01*
X128778822Y-73702257D02*
X128897870Y-73940352D01*
X128897870Y-73940352D02*
X129016917Y-74059400D01*
X129016917Y-74059400D02*
X129255012Y-74178447D01*
X129255012Y-74178447D02*
X130207393Y-74178447D01*
X130207393Y-74178447D02*
X130207393Y-71678447D01*
X130207393Y-71678447D02*
X129374060Y-71678447D01*
X129374060Y-71678447D02*
X129135965Y-71797495D01*
X129135965Y-71797495D02*
X129016917Y-71916542D01*
X129016917Y-71916542D02*
X128897870Y-72154638D01*
X128897870Y-72154638D02*
X128897870Y-72392733D01*
X128897870Y-72392733D02*
X129016917Y-72630828D01*
X129016917Y-72630828D02*
X129135965Y-72749876D01*
X129135965Y-72749876D02*
X129374060Y-72868923D01*
X129374060Y-72868923D02*
X130207393Y-72868923D01*
X127945489Y-72511780D02*
X127350251Y-74178447D01*
X126755012Y-72511780D02*
X127350251Y-74178447D01*
X127350251Y-74178447D02*
X127588346Y-74773685D01*
X127588346Y-74773685D02*
X127707393Y-74892733D01*
X127707393Y-74892733D02*
X127945489Y-75011780D01*
X124016917Y-74059400D02*
X123778822Y-74178447D01*
X123778822Y-74178447D02*
X123302631Y-74178447D01*
X123302631Y-74178447D02*
X123064536Y-74059400D01*
X123064536Y-74059400D02*
X122945488Y-73821304D01*
X122945488Y-73821304D02*
X122945488Y-73702257D01*
X122945488Y-73702257D02*
X123064536Y-73464161D01*
X123064536Y-73464161D02*
X123302631Y-73345114D01*
X123302631Y-73345114D02*
X123659774Y-73345114D01*
X123659774Y-73345114D02*
X123897869Y-73226066D01*
X123897869Y-73226066D02*
X124016917Y-72987971D01*
X124016917Y-72987971D02*
X124016917Y-72868923D01*
X124016917Y-72868923D02*
X123897869Y-72630828D01*
X123897869Y-72630828D02*
X123659774Y-72511780D01*
X123659774Y-72511780D02*
X123302631Y-72511780D01*
X123302631Y-72511780D02*
X123064536Y-72630828D01*
X120802631Y-74178447D02*
X120802631Y-72868923D01*
X120802631Y-72868923D02*
X120921678Y-72630828D01*
X120921678Y-72630828D02*
X121159774Y-72511780D01*
X121159774Y-72511780D02*
X121635964Y-72511780D01*
X121635964Y-72511780D02*
X121874059Y-72630828D01*
X120802631Y-74059400D02*
X121040726Y-74178447D01*
X121040726Y-74178447D02*
X121635964Y-74178447D01*
X121635964Y-74178447D02*
X121874059Y-74059400D01*
X121874059Y-74059400D02*
X121993107Y-73821304D01*
X121993107Y-73821304D02*
X121993107Y-73583209D01*
X121993107Y-73583209D02*
X121874059Y-73345114D01*
X121874059Y-73345114D02*
X121635964Y-73226066D01*
X121635964Y-73226066D02*
X121040726Y-73226066D01*
X121040726Y-73226066D02*
X120802631Y-73107019D01*
X119612154Y-74178447D02*
X119612154Y-72511780D01*
X119612154Y-72749876D02*
X119493107Y-72630828D01*
X119493107Y-72630828D02*
X119255012Y-72511780D01*
X119255012Y-72511780D02*
X118897869Y-72511780D01*
X118897869Y-72511780D02*
X118659773Y-72630828D01*
X118659773Y-72630828D02*
X118540726Y-72868923D01*
X118540726Y-72868923D02*
X118540726Y-74178447D01*
X118540726Y-72868923D02*
X118421678Y-72630828D01*
X118421678Y-72630828D02*
X118183583Y-72511780D01*
X118183583Y-72511780D02*
X117826440Y-72511780D01*
X117826440Y-72511780D02*
X117588345Y-72630828D01*
X117588345Y-72630828D02*
X117469297Y-72868923D01*
X117469297Y-72868923D02*
X117469297Y-74178447D01*
D14*
X104333332Y-47907200D02*
X104190475Y-47954819D01*
X104190475Y-47954819D02*
X103952380Y-47954819D01*
X103952380Y-47954819D02*
X103857142Y-47907200D01*
X103857142Y-47907200D02*
X103809523Y-47859580D01*
X103809523Y-47859580D02*
X103761904Y-47764342D01*
X103761904Y-47764342D02*
X103761904Y-47669104D01*
X103761904Y-47669104D02*
X103809523Y-47573866D01*
X103809523Y-47573866D02*
X103857142Y-47526247D01*
X103857142Y-47526247D02*
X103952380Y-47478628D01*
X103952380Y-47478628D02*
X104142856Y-47431009D01*
X104142856Y-47431009D02*
X104238094Y-47383390D01*
X104238094Y-47383390D02*
X104285713Y-47335771D01*
X104285713Y-47335771D02*
X104333332Y-47240533D01*
X104333332Y-47240533D02*
X104333332Y-47145295D01*
X104333332Y-47145295D02*
X104285713Y-47050057D01*
X104285713Y-47050057D02*
X104238094Y-47002438D01*
X104238094Y-47002438D02*
X104142856Y-46954819D01*
X104142856Y-46954819D02*
X103904761Y-46954819D01*
X103904761Y-46954819D02*
X103761904Y-47002438D01*
X103428570Y-46954819D02*
X103190475Y-47954819D01*
X103190475Y-47954819D02*
X102999999Y-47240533D01*
X102999999Y-47240533D02*
X102809523Y-47954819D01*
X102809523Y-47954819D02*
X102571428Y-46954819D01*
X102238094Y-47050057D02*
X102190475Y-47002438D01*
X102190475Y-47002438D02*
X102095237Y-46954819D01*
X102095237Y-46954819D02*
X101857142Y-46954819D01*
X101857142Y-46954819D02*
X101761904Y-47002438D01*
X101761904Y-47002438D02*
X101714285Y-47050057D01*
X101714285Y-47050057D02*
X101666666Y-47145295D01*
X101666666Y-47145295D02*
X101666666Y-47240533D01*
X101666666Y-47240533D02*
X101714285Y-47383390D01*
X101714285Y-47383390D02*
X102285713Y-47954819D01*
X102285713Y-47954819D02*
X101666666Y-47954819D01*
X104333332Y-73407200D02*
X104190475Y-73454819D01*
X104190475Y-73454819D02*
X103952380Y-73454819D01*
X103952380Y-73454819D02*
X103857142Y-73407200D01*
X103857142Y-73407200D02*
X103809523Y-73359580D01*
X103809523Y-73359580D02*
X103761904Y-73264342D01*
X103761904Y-73264342D02*
X103761904Y-73169104D01*
X103761904Y-73169104D02*
X103809523Y-73073866D01*
X103809523Y-73073866D02*
X103857142Y-73026247D01*
X103857142Y-73026247D02*
X103952380Y-72978628D01*
X103952380Y-72978628D02*
X104142856Y-72931009D01*
X104142856Y-72931009D02*
X104238094Y-72883390D01*
X104238094Y-72883390D02*
X104285713Y-72835771D01*
X104285713Y-72835771D02*
X104333332Y-72740533D01*
X104333332Y-72740533D02*
X104333332Y-72645295D01*
X104333332Y-72645295D02*
X104285713Y-72550057D01*
X104285713Y-72550057D02*
X104238094Y-72502438D01*
X104238094Y-72502438D02*
X104142856Y-72454819D01*
X104142856Y-72454819D02*
X103904761Y-72454819D01*
X103904761Y-72454819D02*
X103761904Y-72502438D01*
X103428570Y-72454819D02*
X103190475Y-73454819D01*
X103190475Y-73454819D02*
X102999999Y-72740533D01*
X102999999Y-72740533D02*
X102809523Y-73454819D01*
X102809523Y-73454819D02*
X102571428Y-72454819D01*
X101666666Y-73454819D02*
X102238094Y-73454819D01*
X101952380Y-73454819D02*
X101952380Y-72454819D01*
X101952380Y-72454819D02*
X102047618Y-72597676D01*
X102047618Y-72597676D02*
X102142856Y-72692914D01*
X102142856Y-72692914D02*
X102238094Y-72740533D01*
X120470514Y-78010609D02*
X120327657Y-78058228D01*
X120327657Y-78058228D02*
X120280038Y-78105847D01*
X120280038Y-78105847D02*
X120232419Y-78201085D01*
X120232419Y-78201085D02*
X120232419Y-78343942D01*
X120232419Y-78343942D02*
X120280038Y-78439180D01*
X120280038Y-78439180D02*
X120327657Y-78486800D01*
X120327657Y-78486800D02*
X120422895Y-78534419D01*
X120422895Y-78534419D02*
X120803847Y-78534419D01*
X120803847Y-78534419D02*
X120803847Y-77534419D01*
X120803847Y-77534419D02*
X120470514Y-77534419D01*
X120470514Y-77534419D02*
X120375276Y-77582038D01*
X120375276Y-77582038D02*
X120327657Y-77629657D01*
X120327657Y-77629657D02*
X120280038Y-77724895D01*
X120280038Y-77724895D02*
X120280038Y-77820133D01*
X120280038Y-77820133D02*
X120327657Y-77915371D01*
X120327657Y-77915371D02*
X120375276Y-77962990D01*
X120375276Y-77962990D02*
X120470514Y-78010609D01*
X120470514Y-78010609D02*
X120803847Y-78010609D01*
X119946704Y-77534419D02*
X119375276Y-77534419D01*
X119660990Y-78534419D02*
X119660990Y-77534419D01*
X118518133Y-78534419D02*
X119089561Y-78534419D01*
X118803847Y-78534419D02*
X118803847Y-77534419D01*
X118803847Y-77534419D02*
X118899085Y-77677276D01*
X118899085Y-77677276D02*
X118994323Y-77772514D01*
X118994323Y-77772514D02*
X119089561Y-77820133D01*
X107166666Y-56954819D02*
X107499999Y-56478628D01*
X107738094Y-56954819D02*
X107738094Y-55954819D01*
X107738094Y-55954819D02*
X107357142Y-55954819D01*
X107357142Y-55954819D02*
X107261904Y-56002438D01*
X107261904Y-56002438D02*
X107214285Y-56050057D01*
X107214285Y-56050057D02*
X107166666Y-56145295D01*
X107166666Y-56145295D02*
X107166666Y-56288152D01*
X107166666Y-56288152D02*
X107214285Y-56383390D01*
X107214285Y-56383390D02*
X107261904Y-56431009D01*
X107261904Y-56431009D02*
X107357142Y-56478628D01*
X107357142Y-56478628D02*
X107738094Y-56478628D01*
X106785713Y-56050057D02*
X106738094Y-56002438D01*
X106738094Y-56002438D02*
X106642856Y-55954819D01*
X106642856Y-55954819D02*
X106404761Y-55954819D01*
X106404761Y-55954819D02*
X106309523Y-56002438D01*
X106309523Y-56002438D02*
X106261904Y-56050057D01*
X106261904Y-56050057D02*
X106214285Y-56145295D01*
X106214285Y-56145295D02*
X106214285Y-56240533D01*
X106214285Y-56240533D02*
X106261904Y-56383390D01*
X106261904Y-56383390D02*
X106833332Y-56954819D01*
X106833332Y-56954819D02*
X106214285Y-56954819D01*
X108204166Y-52204819D02*
X108537499Y-51728628D01*
X108775594Y-52204819D02*
X108775594Y-51204819D01*
X108775594Y-51204819D02*
X108394642Y-51204819D01*
X108394642Y-51204819D02*
X108299404Y-51252438D01*
X108299404Y-51252438D02*
X108251785Y-51300057D01*
X108251785Y-51300057D02*
X108204166Y-51395295D01*
X108204166Y-51395295D02*
X108204166Y-51538152D01*
X108204166Y-51538152D02*
X108251785Y-51633390D01*
X108251785Y-51633390D02*
X108299404Y-51681009D01*
X108299404Y-51681009D02*
X108394642Y-51728628D01*
X108394642Y-51728628D02*
X108775594Y-51728628D01*
X107251785Y-52204819D02*
X107823213Y-52204819D01*
X107537499Y-52204819D02*
X107537499Y-51204819D01*
X107537499Y-51204819D02*
X107632737Y-51347676D01*
X107632737Y-51347676D02*
X107727975Y-51442914D01*
X107727975Y-51442914D02*
X107823213Y-51490533D01*
X100666666Y-65659580D02*
X100714285Y-65707200D01*
X100714285Y-65707200D02*
X100857142Y-65754819D01*
X100857142Y-65754819D02*
X100952380Y-65754819D01*
X100952380Y-65754819D02*
X101095237Y-65707200D01*
X101095237Y-65707200D02*
X101190475Y-65611961D01*
X101190475Y-65611961D02*
X101238094Y-65516723D01*
X101238094Y-65516723D02*
X101285713Y-65326247D01*
X101285713Y-65326247D02*
X101285713Y-65183390D01*
X101285713Y-65183390D02*
X101238094Y-64992914D01*
X101238094Y-64992914D02*
X101190475Y-64897676D01*
X101190475Y-64897676D02*
X101095237Y-64802438D01*
X101095237Y-64802438D02*
X100952380Y-64754819D01*
X100952380Y-64754819D02*
X100857142Y-64754819D01*
X100857142Y-64754819D02*
X100714285Y-64802438D01*
X100714285Y-64802438D02*
X100666666Y-64850057D01*
X99809523Y-64754819D02*
X99999999Y-64754819D01*
X99999999Y-64754819D02*
X100095237Y-64802438D01*
X100095237Y-64802438D02*
X100142856Y-64850057D01*
X100142856Y-64850057D02*
X100238094Y-64992914D01*
X100238094Y-64992914D02*
X100285713Y-65183390D01*
X100285713Y-65183390D02*
X100285713Y-65564342D01*
X100285713Y-65564342D02*
X100238094Y-65659580D01*
X100238094Y-65659580D02*
X100190475Y-65707200D01*
X100190475Y-65707200D02*
X100095237Y-65754819D01*
X100095237Y-65754819D02*
X99904761Y-65754819D01*
X99904761Y-65754819D02*
X99809523Y-65707200D01*
X99809523Y-65707200D02*
X99761904Y-65659580D01*
X99761904Y-65659580D02*
X99714285Y-65564342D01*
X99714285Y-65564342D02*
X99714285Y-65326247D01*
X99714285Y-65326247D02*
X99761904Y-65231009D01*
X99761904Y-65231009D02*
X99809523Y-65183390D01*
X99809523Y-65183390D02*
X99904761Y-65135771D01*
X99904761Y-65135771D02*
X100095237Y-65135771D01*
X100095237Y-65135771D02*
X100190475Y-65183390D01*
X100190475Y-65183390D02*
X100238094Y-65231009D01*
X100238094Y-65231009D02*
X100285713Y-65326247D01*
X123954819Y-45833333D02*
X123478628Y-45500000D01*
X123954819Y-45261905D02*
X122954819Y-45261905D01*
X122954819Y-45261905D02*
X122954819Y-45642857D01*
X122954819Y-45642857D02*
X123002438Y-45738095D01*
X123002438Y-45738095D02*
X123050057Y-45785714D01*
X123050057Y-45785714D02*
X123145295Y-45833333D01*
X123145295Y-45833333D02*
X123288152Y-45833333D01*
X123288152Y-45833333D02*
X123383390Y-45785714D01*
X123383390Y-45785714D02*
X123431009Y-45738095D01*
X123431009Y-45738095D02*
X123478628Y-45642857D01*
X123478628Y-45642857D02*
X123478628Y-45261905D01*
X122954819Y-46166667D02*
X122954819Y-46785714D01*
X122954819Y-46785714D02*
X123335771Y-46452381D01*
X123335771Y-46452381D02*
X123335771Y-46595238D01*
X123335771Y-46595238D02*
X123383390Y-46690476D01*
X123383390Y-46690476D02*
X123431009Y-46738095D01*
X123431009Y-46738095D02*
X123526247Y-46785714D01*
X123526247Y-46785714D02*
X123764342Y-46785714D01*
X123764342Y-46785714D02*
X123859580Y-46738095D01*
X123859580Y-46738095D02*
X123907200Y-46690476D01*
X123907200Y-46690476D02*
X123954819Y-46595238D01*
X123954819Y-46595238D02*
X123954819Y-46309524D01*
X123954819Y-46309524D02*
X123907200Y-46214286D01*
X123907200Y-46214286D02*
X123859580Y-46166667D01*
X104666666Y-65109580D02*
X104714285Y-65157200D01*
X104714285Y-65157200D02*
X104857142Y-65204819D01*
X104857142Y-65204819D02*
X104952380Y-65204819D01*
X104952380Y-65204819D02*
X105095237Y-65157200D01*
X105095237Y-65157200D02*
X105190475Y-65061961D01*
X105190475Y-65061961D02*
X105238094Y-64966723D01*
X105238094Y-64966723D02*
X105285713Y-64776247D01*
X105285713Y-64776247D02*
X105285713Y-64633390D01*
X105285713Y-64633390D02*
X105238094Y-64442914D01*
X105238094Y-64442914D02*
X105190475Y-64347676D01*
X105190475Y-64347676D02*
X105095237Y-64252438D01*
X105095237Y-64252438D02*
X104952380Y-64204819D01*
X104952380Y-64204819D02*
X104857142Y-64204819D01*
X104857142Y-64204819D02*
X104714285Y-64252438D01*
X104714285Y-64252438D02*
X104666666Y-64300057D01*
X104285713Y-64300057D02*
X104238094Y-64252438D01*
X104238094Y-64252438D02*
X104142856Y-64204819D01*
X104142856Y-64204819D02*
X103904761Y-64204819D01*
X103904761Y-64204819D02*
X103809523Y-64252438D01*
X103809523Y-64252438D02*
X103761904Y-64300057D01*
X103761904Y-64300057D02*
X103714285Y-64395295D01*
X103714285Y-64395295D02*
X103714285Y-64490533D01*
X103714285Y-64490533D02*
X103761904Y-64633390D01*
X103761904Y-64633390D02*
X104333332Y-65204819D01*
X104333332Y-65204819D02*
X103714285Y-65204819D01*
X112166666Y-67359580D02*
X112214285Y-67407200D01*
X112214285Y-67407200D02*
X112357142Y-67454819D01*
X112357142Y-67454819D02*
X112452380Y-67454819D01*
X112452380Y-67454819D02*
X112595237Y-67407200D01*
X112595237Y-67407200D02*
X112690475Y-67311961D01*
X112690475Y-67311961D02*
X112738094Y-67216723D01*
X112738094Y-67216723D02*
X112785713Y-67026247D01*
X112785713Y-67026247D02*
X112785713Y-66883390D01*
X112785713Y-66883390D02*
X112738094Y-66692914D01*
X112738094Y-66692914D02*
X112690475Y-66597676D01*
X112690475Y-66597676D02*
X112595237Y-66502438D01*
X112595237Y-66502438D02*
X112452380Y-66454819D01*
X112452380Y-66454819D02*
X112357142Y-66454819D01*
X112357142Y-66454819D02*
X112214285Y-66502438D01*
X112214285Y-66502438D02*
X112166666Y-66550057D01*
X111214285Y-67454819D02*
X111785713Y-67454819D01*
X111499999Y-67454819D02*
X111499999Y-66454819D01*
X111499999Y-66454819D02*
X111595237Y-66597676D01*
X111595237Y-66597676D02*
X111690475Y-66692914D01*
X111690475Y-66692914D02*
X111785713Y-66740533D01*
X121511904Y-59704819D02*
X121511904Y-60514342D01*
X121511904Y-60514342D02*
X121464285Y-60609580D01*
X121464285Y-60609580D02*
X121416666Y-60657200D01*
X121416666Y-60657200D02*
X121321428Y-60704819D01*
X121321428Y-60704819D02*
X121130952Y-60704819D01*
X121130952Y-60704819D02*
X121035714Y-60657200D01*
X121035714Y-60657200D02*
X120988095Y-60609580D01*
X120988095Y-60609580D02*
X120940476Y-60514342D01*
X120940476Y-60514342D02*
X120940476Y-59704819D01*
X119940476Y-60704819D02*
X120511904Y-60704819D01*
X120226190Y-60704819D02*
X120226190Y-59704819D01*
X120226190Y-59704819D02*
X120321428Y-59847676D01*
X120321428Y-59847676D02*
X120416666Y-59942914D01*
X120416666Y-59942914D02*
X120511904Y-59990533D01*
D15*
%TO.C,SW2*%
X106100000Y-39900000D02*
X106100000Y-40000000D01*
X106100000Y-39900000D02*
X99900000Y-39900000D01*
X106100000Y-41500000D02*
X106100000Y-44500000D01*
X106100000Y-46100000D02*
X106100000Y-46000000D01*
X106100000Y-46100000D02*
X99900000Y-46100000D01*
X99900000Y-40000000D02*
X99900000Y-39900000D01*
X99900000Y-41500000D02*
X99900000Y-44500000D01*
X99900000Y-46100000D02*
X99900000Y-46000000D01*
%TO.C,SW1*%
X106450000Y-76600000D02*
X106450000Y-77400000D01*
X104600000Y-75500000D02*
X102900000Y-75500000D01*
X101600000Y-75500000D02*
X101400000Y-75500000D01*
X99550000Y-76600000D02*
X99550000Y-77400000D01*
%TO.C,BT1*%
X111845000Y-75120000D02*
X111845000Y-76500000D01*
X113225000Y-75120000D02*
X111845000Y-75120000D01*
X114495000Y-75120000D02*
X114495000Y-77880000D01*
X114495000Y-75120000D02*
X117145000Y-75120000D01*
X114495000Y-77880000D02*
X117145000Y-77880000D01*
X117145000Y-75120000D02*
X117145000Y-77880000D01*
%TO.C,R2*%
X106272936Y-57590000D02*
X107727064Y-57590000D01*
X106272936Y-59410000D02*
X107727064Y-59410000D01*
%TO.C,R1*%
X107560436Y-53220000D02*
X109014564Y-53220000D01*
X107560436Y-55040000D02*
X109014564Y-55040000D01*
%TO.C,C6*%
X97740000Y-66240000D02*
X97740000Y-67940000D01*
X97740000Y-71760000D02*
X97740000Y-70060000D01*
X102195563Y-66240000D02*
X97740000Y-66240000D01*
X102195563Y-71760000D02*
X97740000Y-71760000D01*
X103260000Y-67304437D02*
X102195563Y-66240000D01*
X103260000Y-67304437D02*
X103260000Y-67940000D01*
X103260000Y-70695563D02*
X102195563Y-71760000D01*
X103260000Y-70695563D02*
X103260000Y-70060000D01*
X103812500Y-67002500D02*
X103812500Y-67627500D01*
X104125000Y-67315000D02*
X103500000Y-67315000D01*
%TO.C,R3*%
X120510000Y-46727064D02*
X120510000Y-45272936D01*
X122330000Y-46727064D02*
X122330000Y-45272936D01*
%TO.C,UPDI_Programmer1*%
X120040000Y-42380000D02*
X120040000Y-39620000D01*
X125230000Y-39620000D02*
X120040000Y-39620000D01*
X125230000Y-42380000D02*
X120040000Y-42380000D01*
X125230000Y-42380000D02*
X125230000Y-39620000D01*
X126500000Y-42380000D02*
X127880000Y-42380000D01*
X127880000Y-42380000D02*
X127880000Y-41000000D01*
%TO.C,C2*%
X106390000Y-62523748D02*
X106390000Y-63946252D01*
X108210000Y-62523748D02*
X108210000Y-63946252D01*
%TO.C,C1*%
X109390000Y-62523748D02*
X109390000Y-63946252D01*
X111210000Y-62523748D02*
X111210000Y-63946252D01*
%TO.C,U1*%
X113715000Y-53505000D02*
X113715000Y-53570000D01*
X113715000Y-62310000D02*
X113715000Y-62375000D01*
X113715000Y-62375000D02*
X117835000Y-62375000D01*
X117835000Y-53505000D02*
X113715000Y-53505000D01*
X117835000Y-53570000D02*
X117835000Y-53505000D01*
X117835000Y-62375000D02*
X117835000Y-62310000D01*
X113415000Y-62640000D02*
X112935000Y-62640000D01*
X113175000Y-62310000D01*
X113415000Y-62640000D01*
G36*
X113415000Y-62640000D02*
G01*
X112935000Y-62640000D01*
X113175000Y-62310000D01*
X113415000Y-62640000D01*
G37*
%TD*%
M02*
